<svg version="1.1" xmlns="http://www.w3.org/2000/svg" xmlns:xlink="http://www.w3.org/1999/xlink"  pointer-events="none" width="256" height="256"><g><g transform="translate(227,32)"><svg width="28" height="28" viewBox="0 0 28 28" xmlns="http://www.w3.org/2000/svg"><path d="M12.917 5.28216C13.9568 4.70625 15.2548 5.04089 15.8927 6.0224L15.9755 6.16023L23.7344 20.1685C23.9192 20.5021 24.0162 20.8773 24.0162 21.2587C24.0162 22.4495 23.091 23.4243 21.9202 23.5035L21.7662 23.5087H6.25041C5.8691 23.5087 5.49405 23.4118 5.16046 23.2271C4.12062 22.6513 3.71558 21.3734 4.20914 20.312L4.28204 20.1687L12.0388 6.16046C12.2434 5.7911 12.5477 5.48674 12.917 5.28216Z" fill="#3967e4"/><path d="M15.0066 19.5004C15.0066 18.9489 14.5595 18.5017 14.0079 18.5017C13.4564 18.5017 13.0093 18.9489 13.0093 19.5004C13.0093 20.052 13.4564 20.4991 14.0079 20.4991C14.5595 20.4991 15.0066 20.052 15.0066 19.5004Z" fill="white"/><path d="M14.7474 11.6471C14.6975 11.2811 14.3834 10.9992 14.0037 10.9995C13.5895 10.9998 13.254 11.3359 13.2543 11.7501L13.2579 16.2517L13.2649 16.3535C13.3148 16.7195 13.6288 17.0014 14.0085 17.0011C14.4228 17.0008 14.7583 16.6647 14.7579 16.2505L14.7543 11.7489L14.7474 11.6471Z" fill="white"/></svg></g><g transform="translate(237.3,12.1)"><svg width="28" height="28" viewBox="0 0 28 28" xmlns="http://www.w3.org/2000/svg"><path d="M12.917 5.28216C13.9568 4.70625 15.2548 5.04089 15.8927 6.0224L15.9755 6.16023L23.7344 20.1685C23.9192 20.5021 24.0162 20.8773 24.0162 21.2587C24.0162 22.4495 23.091 23.4243 21.9202 23.5035L21.7662 23.5087H6.25041C5.8691 23.5087 5.49405 23.4118 5.16046 23.2271C4.12062 22.6513 3.71558 21.3734 4.20914 20.312L4.28204 20.1687L12.0388 6.16046C12.2434 5.7911 12.5477 5.48674 12.917 5.28216Z" fill="#3967e4"/><path d="M15.0066 19.5004C15.0066 18.9489 14.5595 18.5017 14.0079 18.5017C13.4564 18.5017 13.0093 18.9489 13.0093 19.5004C13.0093 20.052 13.4564 20.4991 14.0079 20.4991C14.5595 20.4991 15.0066 20.052 15.0066 19.5004Z" fill="white"/><path d="M14.7474 11.6471C14.6975 11.2811 14.3834 10.9992 14.0037 10.9995C13.5895 10.9998 13.254 11.3359 13.2543 11.7501L13.2579 16.2517L13.2649 16.3535C13.3148 16.7195 13.6288 17.0014 14.0085 17.0011C14.4228 17.0008 14.7583 16.6647 14.7579 16.2505L14.7543 11.7489L14.7474 11.6471Z" fill="white"/></svg></g><g transform="translate(143.3,6.3)"><svg width="28" height="28" viewBox="0 0 28 28" xmlns="http://www.w3.org/2000/svg"><path d="M12.917 5.28216C13.9568 4.70625 15.2548 5.04089 15.8927 6.0224L15.9755 6.16023L23.7344 20.1685C23.9192 20.5021 24.0162 20.8773 24.0162 21.2587C24.0162 22.4495 23.091 23.4243 21.9202 23.5035L21.7662 23.5087H6.25041C5.8691 23.5087 5.49405 23.4118 5.16046 23.2271C4.12062 22.6513 3.71558 21.3734 4.20914 20.312L4.28204 20.1687L12.0388 6.16046C12.2434 5.7911 12.5477 5.48674 12.917 5.28216Z" fill="#3967e4"/><path d="M15.0066 19.5004C15.0066 18.9489 14.5595 18.5017 14.0079 18.5017C13.4564 18.5017 13.0093 18.9489 13.0093 19.5004C13.0093 20.052 13.4564 20.4991 14.0079 20.4991C14.5595 20.4991 15.0066 20.052 15.0066 19.5004Z" fill="white"/><path d="M14.7474 11.6471C14.6975 11.2811 14.3834 10.9992 14.0037 10.9995C13.5895 10.9998 13.254 11.3359 13.2543 11.7501L13.2579 16.2517L13.2649 16.3535C13.3148 16.7195 13.6288 17.0014 14.0085 17.0011C14.4228 17.0008 14.7583 16.6647 14.7579 16.2505L14.7543 11.7489L14.7474 11.6471Z" fill="white"/></svg></g><g transform="translate(189.5,66)"><svg width="28" height="28" viewBox="0 0 28 28" xmlns="http://www.w3.org/2000/svg"><path d="M12.917 5.28216C13.9568 4.70625 15.2548 5.04089 15.8927 6.0224L15.9755 6.16023L23.7344 20.1685C23.9192 20.5021 24.0162 20.8773 24.0162 21.2587C24.0162 22.4495 23.091 23.4243 21.9202 23.5035L21.7662 23.5087H6.25041C5.8691 23.5087 5.49405 23.4118 5.16046 23.2271C4.12062 22.6513 3.71558 21.3734 4.20914 20.312L4.28204 20.1687L12.0388 6.16046C12.2434 5.7911 12.5477 5.48674 12.917 5.28216Z" fill="#3967e4"/><path d="M15.0066 19.5004C15.0066 18.9489 14.5595 18.5017 14.0079 18.5017C13.4564 18.5017 13.0093 18.9489 13.0093 19.5004C13.0093 20.052 13.4564 20.4991 14.0079 20.4991C14.5595 20.4991 15.0066 20.052 15.0066 19.5004Z" fill="white"/><path d="M14.7474 11.6471C14.6975 11.2811 14.3834 10.9992 14.0037 10.9995C13.5895 10.9998 13.254 11.3359 13.2543 11.7501L13.2579 16.2517L13.2649 16.3535C13.3148 16.7195 13.6288 17.0014 14.0085 17.0011C14.4228 17.0008 14.7583 16.6647 14.7579 16.2505L14.7543 11.7489L14.7474 11.6471Z" fill="white"/></svg></g><g transform="translate(234.4,19.9)"><svg width="28" height="28" viewBox="0 0 28 28" xmlns="http://www.w3.org/2000/svg"><path d="M12.917 5.28216C13.9568 4.70625 15.2548 5.04089 15.8927 6.0224L15.9755 6.16023L23.7344 20.1685C23.9192 20.5021 24.0162 20.8773 24.0162 21.2587C24.0162 22.4495 23.091 23.4243 21.9202 23.5035L21.7662 23.5087H6.25041C5.8691 23.5087 5.49405 23.4118 5.16046 23.2271C4.12062 22.6513 3.71558 21.3734 4.20914 20.312L4.28204 20.1687L12.0388 6.16046C12.2434 5.7911 12.5477 5.48674 12.917 5.28216Z" fill="#3967e4"/><path d="M15.0066 19.5004C15.0066 18.9489 14.5595 18.5017 14.0079 18.5017C13.4564 18.5017 13.0093 18.9489 13.0093 19.5004C13.0093 20.052 13.4564 20.4991 14.0079 20.4991C14.5595 20.4991 15.0066 20.052 15.0066 19.5004Z" fill="white"/><path d="M14.7474 11.6471C14.6975 11.2811 14.3834 10.9992 14.0037 10.9995C13.5895 10.9998 13.254 11.3359 13.2543 11.7501L13.2579 16.2517L13.2649 16.3535C13.3148 16.7195 13.6288 17.0014 14.0085 17.0011C14.4228 17.0008 14.7583 16.6647 14.7579 16.2505L14.7543 11.7489L14.7474 11.6471Z" fill="white"/></svg></g><g transform="translate(305.1,232.8)"><svg width="28" height="28" viewBox="0 0 28 28" xmlns="http://www.w3.org/2000/svg"><path d="M12.917 5.28216C13.9568 4.70625 15.2548 5.04089 15.8927 6.0224L15.9755 6.16023L23.7344 20.1685C23.9192 20.5021 24.0162 20.8773 24.0162 21.2587C24.0162 22.4495 23.091 23.4243 21.9202 23.5035L21.7662 23.5087H6.25041C5.8691 23.5087 5.49405 23.4118 5.16046 23.2271C4.12062 22.6513 3.71558 21.3734 4.20914 20.312L4.28204 20.1687L12.0388 6.16046C12.2434 5.7911 12.5477 5.48674 12.917 5.28216Z" fill="#3967e4"/><path d="M15.0066 19.5004C15.0066 18.9489 14.5595 18.5017 14.0079 18.5017C13.4564 18.5017 13.0093 18.9489 13.0093 19.5004C13.0093 20.052 13.4564 20.4991 14.0079 20.4991C14.5595 20.4991 15.0066 20.052 15.0066 19.5004Z" fill="white"/><path d="M14.7474 11.6471C14.6975 11.2811 14.3834 10.9992 14.0037 10.9995C13.5895 10.9998 13.254 11.3359 13.2543 11.7501L13.2579 16.2517L13.2649 16.3535C13.3148 16.7195 13.6288 17.0014 14.0085 17.0011C14.4228 17.0008 14.7583 16.6647 14.7579 16.2505L14.7543 11.7489L14.7474 11.6471Z" fill="white"/></svg></g><g transform="translate(320.4,216.9)"><svg width="28" height="28" viewBox="0 0 28 28" xmlns="http://www.w3.org/2000/svg"><path d="M12.917 5.28216C13.9568 4.70625 15.2548 5.04089 15.8927 6.0224L15.9755 6.16023L23.7344 20.1685C23.9192 20.5021 24.0162 20.8773 24.0162 21.2587C24.0162 22.4495 23.091 23.4243 21.9202 23.5035L21.7662 23.5087H6.25041C5.8691 23.5087 5.49405 23.4118 5.16046 23.2271C4.12062 22.6513 3.71558 21.3734 4.20914 20.312L4.28204 20.1687L12.0388 6.16046C12.2434 5.7911 12.5477 5.48674 12.917 5.28216Z" fill="#3967e4"/><path d="M15.0066 19.5004C15.0066 18.9489 14.5595 18.5017 14.0079 18.5017C13.4564 18.5017 13.0093 18.9489 13.0093 19.5004C13.0093 20.052 13.4564 20.4991 14.0079 20.4991C14.5595 20.4991 15.0066 20.052 15.0066 19.5004Z" fill="white"/><path d="M14.7474 11.6471C14.6975 11.2811 14.3834 10.9992 14.0037 10.9995C13.5895 10.9998 13.254 11.3359 13.2543 11.7501L13.2579 16.2517L13.2649 16.3535C13.3148 16.7195 13.6288 17.0014 14.0085 17.0011C14.4228 17.0008 14.7583 16.6647 14.7579 16.2505L14.7543 11.7489L14.7474 11.6471Z" fill="white"/></svg></g><g transform="translate(273,240.1)"><svg width="28" height="28" viewBox="0 0 28 28" xmlns="http://www.w3.org/2000/svg"><path d="M12.917 5.28216C13.9568 4.70625 15.2548 5.04089 15.8927 6.0224L15.9755 6.16023L23.7344 20.1685C23.9192 20.5021 24.0162 20.8773 24.0162 21.2587C24.0162 22.4495 23.091 23.4243 21.9202 23.5035L21.7662 23.5087H6.25041C5.8691 23.5087 5.49405 23.4118 5.16046 23.2271C4.12062 22.6513 3.71558 21.3734 4.20914 20.312L4.28204 20.1687L12.0388 6.16046C12.2434 5.7911 12.5477 5.48674 12.917 5.28216Z" fill="#3967e4"/><path d="M15.0066 19.5004C15.0066 18.9489 14.5595 18.5017 14.0079 18.5017C13.4564 18.5017 13.0093 18.9489 13.0093 19.5004C13.0093 20.052 13.4564 20.4991 14.0079 20.4991C14.5595 20.4991 15.0066 20.052 15.0066 19.5004Z" fill="white"/><path d="M14.7474 11.6471C14.6975 11.2811 14.3834 10.9992 14.0037 10.9995C13.5895 10.9998 13.254 11.3359 13.2543 11.7501L13.2579 16.2517L13.2649 16.3535C13.3148 16.7195 13.6288 17.0014 14.0085 17.0011C14.4228 17.0008 14.7583 16.6647 14.7579 16.2505L14.7543 11.7489L14.7474 11.6471Z" fill="white"/></svg></g><g transform="translate(260.8,-26.4)"><svg width="28" height="28" viewBox="0 0 28 28" xmlns="http://www.w3.org/2000/svg"><path d="M12.917 5.28216C13.9568 4.70625 15.2548 5.04089 15.8927 6.0224L15.9755 6.16023L23.7344 20.1685C23.9192 20.5021 24.0162 20.8773 24.0162 21.2587C24.0162 22.4495 23.091 23.4243 21.9202 23.5035L21.7662 23.5087H6.25041C5.8691 23.5087 5.49405 23.4118 5.16046 23.2271C4.12062 22.6513 3.71558 21.3734 4.20914 20.312L4.28204 20.1687L12.0388 6.16046C12.2434 5.7911 12.5477 5.48674 12.917 5.28216Z" fill="#3967e4"/><path d="M15.0066 19.5004C15.0066 18.9489 14.5595 18.5017 14.0079 18.5017C13.4564 18.5017 13.0093 18.9489 13.0093 19.5004C13.0093 20.052 13.4564 20.4991 14.0079 20.4991C14.5595 20.4991 15.0066 20.052 15.0066 19.5004Z" fill="white"/><path d="M14.7474 11.6471C14.6975 11.2811 14.3834 10.9992 14.0037 10.9995C13.5895 10.9998 13.254 11.3359 13.2543 11.7501L13.2579 16.2517L13.2649 16.3535C13.3148 16.7195 13.6288 17.0014 14.0085 17.0011C14.4228 17.0008 14.7583 16.6647 14.7579 16.2505L14.7543 11.7489L14.7474 11.6471Z" fill="white"/></svg></g><g transform="translate(281.7,-35.9)"><svg width="28" height="28" viewBox="0 0 28 28" xmlns="http://www.w3.org/2000/svg"><path d="M12.917 5.28216C13.9568 4.70625 15.2548 5.04089 15.8927 6.0224L15.9755 6.16023L23.7344 20.1685C23.9192 20.5021 24.0162 20.8773 24.0162 21.2587C24.0162 22.4495 23.091 23.4243 21.9202 23.5035L21.7662 23.5087H6.25041C5.8691 23.5087 5.49405 23.4118 5.16046 23.2271C4.12062 22.6513 3.71558 21.3734 4.20914 20.312L4.28204 20.1687L12.0388 6.16046C12.2434 5.7911 12.5477 5.48674 12.917 5.28216Z" fill="#3967e4"/><path d="M15.0066 19.5004C15.0066 18.9489 14.5595 18.5017 14.0079 18.5017C13.4564 18.5017 13.0093 18.9489 13.0093 19.5004C13.0093 20.052 13.4564 20.4991 14.0079 20.4991C14.5595 20.4991 15.0066 20.052 15.0066 19.5004Z" fill="white"/><path d="M14.7474 11.6471C14.6975 11.2811 14.3834 10.9992 14.0037 10.9995C13.5895 10.9998 13.254 11.3359 13.2543 11.7501L13.2579 16.2517L13.2649 16.3535C13.3148 16.7195 13.6288 17.0014 14.0085 17.0011C14.4228 17.0008 14.7583 16.6647 14.7579 16.2505L14.7543 11.7489L14.7474 11.6471Z" fill="white"/></svg></g><g transform="translate(239.5,16.9)"><svg width="28" height="28" viewBox="0 0 28 28" xmlns="http://www.w3.org/2000/svg"><path d="M12.917 5.28216C13.9568 4.70625 15.2548 5.04089 15.8927 6.0224L15.9755 6.16023L23.7344 20.1685C23.9192 20.5021 24.0162 20.8773 24.0162 21.2587C24.0162 22.4495 23.091 23.4243 21.9202 23.5035L21.7662 23.5087H6.25041C5.8691 23.5087 5.49405 23.4118 5.16046 23.2271C4.12062 22.6513 3.71558 21.3734 4.20914 20.312L4.28204 20.1687L12.0388 6.16046C12.2434 5.7911 12.5477 5.48674 12.917 5.28216Z" fill="#3967e4"/><path d="M15.0066 19.5004C15.0066 18.9489 14.5595 18.5017 14.0079 18.5017C13.4564 18.5017 13.0093 18.9489 13.0093 19.5004C13.0093 20.052 13.4564 20.4991 14.0079 20.4991C14.5595 20.4991 15.0066 20.052 15.0066 19.5004Z" fill="white"/><path d="M14.7474 11.6471C14.6975 11.2811 14.3834 10.9992 14.0037 10.9995C13.5895 10.9998 13.254 11.3359 13.2543 11.7501L13.2579 16.2517L13.2649 16.3535C13.3148 16.7195 13.6288 17.0014 14.0085 17.0011C14.4228 17.0008 14.7583 16.6647 14.7579 16.2505L14.7543 11.7489L14.7474 11.6471Z" fill="white"/></svg></g><g transform="translate(226.4,-27.9)"><svg width="28" height="28" viewBox="0 0 28 28" xmlns="http://www.w3.org/2000/svg"><path d="M12.917 5.28216C13.9568 4.70625 15.2548 5.04089 15.8927 6.0224L15.9755 6.16023L23.7344 20.1685C23.9192 20.5021 24.0162 20.8773 24.0162 21.2587C24.0162 22.4495 23.091 23.4243 21.9202 23.5035L21.7662 23.5087H6.25041C5.8691 23.5087 5.49405 23.4118 5.16046 23.2271C4.12062 22.6513 3.71558 21.3734 4.20914 20.312L4.28204 20.1687L12.0388 6.16046C12.2434 5.7911 12.5477 5.48674 12.917 5.28216Z" fill="#3967e4"/><path d="M15.0066 19.5004C15.0066 18.9489 14.5595 18.5017 14.0079 18.5017C13.4564 18.5017 13.0093 18.9489 13.0093 19.5004C13.0093 20.052 13.4564 20.4991 14.0079 20.4991C14.5595 20.4991 15.0066 20.052 15.0066 19.5004Z" fill="white"/><path d="M14.7474 11.6471C14.6975 11.2811 14.3834 10.9992 14.0037 10.9995C13.5895 10.9998 13.254 11.3359 13.2543 11.7501L13.2579 16.2517L13.2649 16.3535C13.3148 16.7195 13.6288 17.0014 14.0085 17.0011C14.4228 17.0008 14.7583 16.6647 14.7579 16.2505L14.7543 11.7489L14.7474 11.6471Z" fill="white"/></svg></g><g transform="translate(307.9,232.3)"><svg width="28" height="28" viewBox="0 0 28 28" xmlns="http://www.w3.org/2000/svg"><path d="M12.917 5.28216C13.9568 4.70625 15.2548 5.04089 15.8927 6.0224L15.9755 6.16023L23.7344 20.1685C23.9192 20.5021 24.0162 20.8773 24.0162 21.2587C24.0162 22.4495 23.091 23.4243 21.9202 23.5035L21.7662 23.5087H6.25041C5.8691 23.5087 5.49405 23.4118 5.16046 23.2271C4.12062 22.6513 3.71558 21.3734 4.20914 20.312L4.28204 20.1687L12.0388 6.16046C12.2434 5.7911 12.5477 5.48674 12.917 5.28216Z" fill="#3967e4"/><path d="M15.0066 19.5004C15.0066 18.9489 14.5595 18.5017 14.0079 18.5017C13.4564 18.5017 13.0093 18.9489 13.0093 19.5004C13.0093 20.052 13.4564 20.4991 14.0079 20.4991C14.5595 20.4991 15.0066 20.052 15.0066 19.5004Z" fill="white"/><path d="M14.7474 11.6471C14.6975 11.2811 14.3834 10.9992 14.0037 10.9995C13.5895 10.9998 13.254 11.3359 13.2543 11.7501L13.2579 16.2517L13.2649 16.3535C13.3148 16.7195 13.6288 17.0014 14.0085 17.0011C14.4228 17.0008 14.7583 16.6647 14.7579 16.2505L14.7543 11.7489L14.7474 11.6471Z" fill="white"/></svg></g><g transform="translate(304.9,232.7)"><svg width="28" height="28" viewBox="0 0 28 28" xmlns="http://www.w3.org/2000/svg"><path d="M12.917 5.28216C13.9568 4.70625 15.2548 5.04089 15.8927 6.0224L15.9755 6.16023L23.7344 20.1685C23.9192 20.5021 24.0162 20.8773 24.0162 21.2587C24.0162 22.4495 23.091 23.4243 21.9202 23.5035L21.7662 23.5087H6.25041C5.8691 23.5087 5.49405 23.4118 5.16046 23.2271C4.12062 22.6513 3.71558 21.3734 4.20914 20.312L4.28204 20.1687L12.0388 6.16046C12.2434 5.7911 12.5477 5.48674 12.917 5.28216Z" fill="#3967e4"/><path d="M15.0066 19.5004C15.0066 18.9489 14.5595 18.5017 14.0079 18.5017C13.4564 18.5017 13.0093 18.9489 13.0093 19.5004C13.0093 20.052 13.4564 20.4991 14.0079 20.4991C14.5595 20.4991 15.0066 20.052 15.0066 19.5004Z" fill="white"/><path d="M14.7474 11.6471C14.6975 11.2811 14.3834 10.9992 14.0037 10.9995C13.5895 10.9998 13.254 11.3359 13.2543 11.7501L13.2579 16.2517L13.2649 16.3535C13.3148 16.7195 13.6288 17.0014 14.0085 17.0011C14.4228 17.0008 14.7583 16.6647 14.7579 16.2505L14.7543 11.7489L14.7474 11.6471Z" fill="white"/></svg></g><g transform="translate(303.3,233.9)"><svg width="28" height="28" viewBox="0 0 28 28" xmlns="http://www.w3.org/2000/svg"><path d="M12.917 5.28216C13.9568 4.70625 15.2548 5.04089 15.8927 6.0224L15.9755 6.16023L23.7344 20.1685C23.9192 20.5021 24.0162 20.8773 24.0162 21.2587C24.0162 22.4495 23.091 23.4243 21.9202 23.5035L21.7662 23.5087H6.25041C5.8691 23.5087 5.49405 23.4118 5.16046 23.2271C4.12062 22.6513 3.71558 21.3734 4.20914 20.312L4.28204 20.1687L12.0388 6.16046C12.2434 5.7911 12.5477 5.48674 12.917 5.28216Z" fill="#3967e4"/><path d="M15.0066 19.5004C15.0066 18.9489 14.5595 18.5017 14.0079 18.5017C13.4564 18.5017 13.0093 18.9489 13.0093 19.5004C13.0093 20.052 13.4564 20.4991 14.0079 20.4991C14.5595 20.4991 15.0066 20.052 15.0066 19.5004Z" fill="white"/><path d="M14.7474 11.6471C14.6975 11.2811 14.3834 10.9992 14.0037 10.9995C13.5895 10.9998 13.254 11.3359 13.2543 11.7501L13.2579 16.2517L13.2649 16.3535C13.3148 16.7195 13.6288 17.0014 14.0085 17.0011C14.4228 17.0008 14.7583 16.6647 14.7579 16.2505L14.7543 11.7489L14.7474 11.6471Z" fill="white"/></svg></g><g transform="translate(297,228.3)"><svg width="28" height="28" viewBox="0 0 28 28" xmlns="http://www.w3.org/2000/svg"><path d="M12.917 5.28216C13.9568 4.70625 15.2548 5.04089 15.8927 6.0224L15.9755 6.16023L23.7344 20.1685C23.9192 20.5021 24.0162 20.8773 24.0162 21.2587C24.0162 22.4495 23.091 23.4243 21.9202 23.5035L21.7662 23.5087H6.25041C5.8691 23.5087 5.49405 23.4118 5.16046 23.2271C4.12062 22.6513 3.71558 21.3734 4.20914 20.312L4.28204 20.1687L12.0388 6.16046C12.2434 5.7911 12.5477 5.48674 12.917 5.28216Z" fill="#3967e4"/><path d="M15.0066 19.5004C15.0066 18.9489 14.5595 18.5017 14.0079 18.5017C13.4564 18.5017 13.0093 18.9489 13.0093 19.5004C13.0093 20.052 13.4564 20.4991 14.0079 20.4991C14.5595 20.4991 15.0066 20.052 15.0066 19.5004Z" fill="white"/><path d="M14.7474 11.6471C14.6975 11.2811 14.3834 10.9992 14.0037 10.9995C13.5895 10.9998 13.254 11.3359 13.2543 11.7501L13.2579 16.2517L13.2649 16.3535C13.3148 16.7195 13.6288 17.0014 14.0085 17.0011C14.4228 17.0008 14.7583 16.6647 14.7579 16.2505L14.7543 11.7489L14.7474 11.6471Z" fill="white"/></svg></g><g transform="translate(260.9,-29.1)"><svg width="28" height="28" viewBox="0 0 28 28" xmlns="http://www.w3.org/2000/svg"><path d="M12.917 5.28216C13.9568 4.70625 15.2548 5.04089 15.8927 6.0224L15.9755 6.16023L23.7344 20.1685C23.9192 20.5021 24.0162 20.8773 24.0162 21.2587C24.0162 22.4495 23.091 23.4243 21.9202 23.5035L21.7662 23.5087H6.25041C5.8691 23.5087 5.49405 23.4118 5.16046 23.2271C4.12062 22.6513 3.71558 21.3734 4.20914 20.312L4.28204 20.1687L12.0388 6.16046C12.2434 5.7911 12.5477 5.48674 12.917 5.28216Z" fill="#3967e4"/><path d="M15.0066 19.5004C15.0066 18.9489 14.5595 18.5017 14.0079 18.5017C13.4564 18.5017 13.0093 18.9489 13.0093 19.5004C13.0093 20.052 13.4564 20.4991 14.0079 20.4991C14.5595 20.4991 15.0066 20.052 15.0066 19.5004Z" fill="white"/><path d="M14.7474 11.6471C14.6975 11.2811 14.3834 10.9992 14.0037 10.9995C13.5895 10.9998 13.254 11.3359 13.2543 11.7501L13.2579 16.2517L13.2649 16.3535C13.3148 16.7195 13.6288 17.0014 14.0085 17.0011C14.4228 17.0008 14.7583 16.6647 14.7579 16.2505L14.7543 11.7489L14.7474 11.6471Z" fill="white"/></svg></g><g transform="translate(271,-79.5)"><svg width="28" height="28" viewBox="0 0 28 28" xmlns="http://www.w3.org/2000/svg"><path d="M12.917 5.28216C13.9568 4.70625 15.2548 5.04089 15.8927 6.0224L15.9755 6.16023L23.7344 20.1685C23.9192 20.5021 24.0162 20.8773 24.0162 21.2587C24.0162 22.4495 23.091 23.4243 21.9202 23.5035L21.7662 23.5087H6.25041C5.8691 23.5087 5.49405 23.4118 5.16046 23.2271C4.12062 22.6513 3.71558 21.3734 4.20914 20.312L4.28204 20.1687L12.0388 6.16046C12.2434 5.7911 12.5477 5.48674 12.917 5.28216Z" fill="#3967e4"/><path d="M15.0066 19.5004C15.0066 18.9489 14.5595 18.5017 14.0079 18.5017C13.4564 18.5017 13.0093 18.9489 13.0093 19.5004C13.0093 20.052 13.4564 20.4991 14.0079 20.4991C14.5595 20.4991 15.0066 20.052 15.0066 19.5004Z" fill="white"/><path d="M14.7474 11.6471C14.6975 11.2811 14.3834 10.9992 14.0037 10.9995C13.5895 10.9998 13.254 11.3359 13.2543 11.7501L13.2579 16.2517L13.2649 16.3535C13.3148 16.7195 13.6288 17.0014 14.0085 17.0011C14.4228 17.0008 14.7583 16.6647 14.7579 16.2505L14.7543 11.7489L14.7474 11.6471Z" fill="white"/></svg></g><g transform="translate(321.9,-87)"><svg width="28" height="28" viewBox="0 0 28 28" xmlns="http://www.w3.org/2000/svg"><path d="M12.917 5.28216C13.9568 4.70625 15.2548 5.04089 15.8927 6.0224L15.9755 6.16023L23.7344 20.1685C23.9192 20.5021 24.0162 20.8773 24.0162 21.2587C24.0162 22.4495 23.091 23.4243 21.9202 23.5035L21.7662 23.5087H6.25041C5.8691 23.5087 5.49405 23.4118 5.16046 23.2271C4.12062 22.6513 3.71558 21.3734 4.20914 20.312L4.28204 20.1687L12.0388 6.16046C12.2434 5.7911 12.5477 5.48674 12.917 5.28216Z" fill="#3967e4"/><path d="M15.0066 19.5004C15.0066 18.9489 14.5595 18.5017 14.0079 18.5017C13.4564 18.5017 13.0093 18.9489 13.0093 19.5004C13.0093 20.052 13.4564 20.4991 14.0079 20.4991C14.5595 20.4991 15.0066 20.052 15.0066 19.5004Z" fill="white"/><path d="M14.7474 11.6471C14.6975 11.2811 14.3834 10.9992 14.0037 10.9995C13.5895 10.9998 13.254 11.3359 13.2543 11.7501L13.2579 16.2517L13.2649 16.3535C13.3148 16.7195 13.6288 17.0014 14.0085 17.0011C14.4228 17.0008 14.7583 16.6647 14.7579 16.2505L14.7543 11.7489L14.7474 11.6471Z" fill="white"/></svg></g><g transform="translate(262.9,-28.8)"><svg width="28" height="28" viewBox="0 0 28 28" xmlns="http://www.w3.org/2000/svg"><path d="M12.917 5.28216C13.9568 4.70625 15.2548 5.04089 15.8927 6.0224L15.9755 6.16023L23.7344 20.1685C23.9192 20.5021 24.0162 20.8773 24.0162 21.2587C24.0162 22.4495 23.091 23.4243 21.9202 23.5035L21.7662 23.5087H6.25041C5.8691 23.5087 5.49405 23.4118 5.16046 23.2271C4.12062 22.6513 3.71558 21.3734 4.20914 20.312L4.28204 20.1687L12.0388 6.16046C12.2434 5.7911 12.5477 5.48674 12.917 5.28216Z" fill="#3967e4"/><path d="M15.0066 19.5004C15.0066 18.9489 14.5595 18.5017 14.0079 18.5017C13.4564 18.5017 13.0093 18.9489 13.0093 19.5004C13.0093 20.052 13.4564 20.4991 14.0079 20.4991C14.5595 20.4991 15.0066 20.052 15.0066 19.5004Z" fill="white"/><path d="M14.7474 11.6471C14.6975 11.2811 14.3834 10.9992 14.0037 10.9995C13.5895 10.9998 13.254 11.3359 13.2543 11.7501L13.2579 16.2517L13.2649 16.3535C13.3148 16.7195 13.6288 17.0014 14.0085 17.0011C14.4228 17.0008 14.7583 16.6647 14.7579 16.2505L14.7543 11.7489L14.7474 11.6471Z" fill="white"/></svg></g><g transform="translate(258.6,-28.1)"><svg width="28" height="28" viewBox="0 0 28 28" xmlns="http://www.w3.org/2000/svg"><path d="M12.917 5.28216C13.9568 4.70625 15.2548 5.04089 15.8927 6.0224L15.9755 6.16023L23.7344 20.1685C23.9192 20.5021 24.0162 20.8773 24.0162 21.2587C24.0162 22.4495 23.091 23.4243 21.9202 23.5035L21.7662 23.5087H6.25041C5.8691 23.5087 5.49405 23.4118 5.16046 23.2271C4.12062 22.6513 3.71558 21.3734 4.20914 20.312L4.28204 20.1687L12.0388 6.16046C12.2434 5.7911 12.5477 5.48674 12.917 5.28216Z" fill="#3967e4"/><path d="M15.0066 19.5004C15.0066 18.9489 14.5595 18.5017 14.0079 18.5017C13.4564 18.5017 13.0093 18.9489 13.0093 19.5004C13.0093 20.052 13.4564 20.4991 14.0079 20.4991C14.5595 20.4991 15.0066 20.052 15.0066 19.5004Z" fill="white"/><path d="M14.7474 11.6471C14.6975 11.2811 14.3834 10.9992 14.0037 10.9995C13.5895 10.9998 13.254 11.3359 13.2543 11.7501L13.2579 16.2517L13.2649 16.3535C13.3148 16.7195 13.6288 17.0014 14.0085 17.0011C14.4228 17.0008 14.7583 16.6647 14.7579 16.2505L14.7543 11.7489L14.7474 11.6471Z" fill="white"/></svg></g><g transform="translate(-96.8,212.8)"><svg width="28" height="28" viewBox="0 0 28 28" xmlns="http://www.w3.org/2000/svg"><path d="M12.917 5.28216C13.9568 4.70625 15.2548 5.04089 15.8927 6.0224L15.9755 6.16023L23.7344 20.1685C23.9192 20.5021 24.0162 20.8773 24.0162 21.2587C24.0162 22.4495 23.091 23.4243 21.9202 23.5035L21.7662 23.5087H6.25041C5.8691 23.5087 5.49405 23.4118 5.16046 23.2271C4.12062 22.6513 3.71558 21.3734 4.20914 20.312L4.28204 20.1687L12.0388 6.16046C12.2434 5.7911 12.5477 5.48674 12.917 5.28216Z" fill="#f1c40e"/><path d="M15.0066 19.5004C15.0066 18.9489 14.5595 18.5017 14.0079 18.5017C13.4564 18.5017 13.0093 18.9489 13.0093 19.5004C13.0093 20.052 13.4564 20.4991 14.0079 20.4991C14.5595 20.4991 15.0066 20.052 15.0066 19.5004Z" fill="white"/><path d="M14.7474 11.6471C14.6975 11.2811 14.3834 10.9992 14.0037 10.9995C13.5895 10.9998 13.254 11.3359 13.2543 11.7501L13.2579 16.2517L13.2649 16.3535C13.3148 16.7195 13.6288 17.0014 14.0085 17.0011C14.4228 17.0008 14.7583 16.6647 14.7579 16.2505L14.7543 11.7489L14.7474 11.6471Z" fill="white"/></svg></g><g transform="translate(59.2,172.7)"><svg width="28" height="28" viewBox="0 0 28 28" xmlns="http://www.w3.org/2000/svg"><path d="M12.917 5.28216C13.9568 4.70625 15.2548 5.04089 15.8927 6.0224L15.9755 6.16023L23.7344 20.1685C23.9192 20.5021 24.0162 20.8773 24.0162 21.2587C24.0162 22.4495 23.091 23.4243 21.9202 23.5035L21.7662 23.5087H6.25041C5.8691 23.5087 5.49405 23.4118 5.16046 23.2271C4.12062 22.6513 3.71558 21.3734 4.20914 20.312L4.28204 20.1687L12.0388 6.16046C12.2434 5.7911 12.5477 5.48674 12.917 5.28216Z" fill="#f1c40e"/><path d="M15.0066 19.5004C15.0066 18.9489 14.5595 18.5017 14.0079 18.5017C13.4564 18.5017 13.0093 18.9489 13.0093 19.5004C13.0093 20.052 13.4564 20.4991 14.0079 20.4991C14.5595 20.4991 15.0066 20.052 15.0066 19.5004Z" fill="white"/><path d="M14.7474 11.6471C14.6975 11.2811 14.3834 10.9992 14.0037 10.9995C13.5895 10.9998 13.254 11.3359 13.2543 11.7501L13.2579 16.2517L13.2649 16.3535C13.3148 16.7195 13.6288 17.0014 14.0085 17.0011C14.4228 17.0008 14.7583 16.6647 14.7579 16.2505L14.7543 11.7489L14.7474 11.6471Z" fill="white"/></svg></g><g transform="translate(-86.7,138.3)"><svg width="28" height="28" viewBox="0 0 28 28" xmlns="http://www.w3.org/2000/svg"><path d="M12.917 5.28216C13.9568 4.70625 15.2548 5.04089 15.8927 6.0224L15.9755 6.16023L23.7344 20.1685C23.9192 20.5021 24.0162 20.8773 24.0162 21.2587C24.0162 22.4495 23.091 23.4243 21.9202 23.5035L21.7662 23.5087H6.25041C5.8691 23.5087 5.49405 23.4118 5.16046 23.2271C4.12062 22.6513 3.71558 21.3734 4.20914 20.312L4.28204 20.1687L12.0388 6.16046C12.2434 5.7911 12.5477 5.48674 12.917 5.28216Z" fill="#f1c40e"/><path d="M15.0066 19.5004C15.0066 18.9489 14.5595 18.5017 14.0079 18.5017C13.4564 18.5017 13.0093 18.9489 13.0093 19.5004C13.0093 20.052 13.4564 20.4991 14.0079 20.4991C14.5595 20.4991 15.0066 20.052 15.0066 19.5004Z" fill="white"/><path d="M14.7474 11.6471C14.6975 11.2811 14.3834 10.9992 14.0037 10.9995C13.5895 10.9998 13.254 11.3359 13.2543 11.7501L13.2579 16.2517L13.2649 16.3535C13.3148 16.7195 13.6288 17.0014 14.0085 17.0011C14.4228 17.0008 14.7583 16.6647 14.7579 16.2505L14.7543 11.7489L14.7474 11.6471Z" fill="white"/></svg></g><g transform="translate(-86.3,212.6)"><svg width="28" height="28" viewBox="0 0 28 28" xmlns="http://www.w3.org/2000/svg"><path d="M12.917 5.28216C13.9568 4.70625 15.2548 5.04089 15.8927 6.0224L15.9755 6.16023L23.7344 20.1685C23.9192 20.5021 24.0162 20.8773 24.0162 21.2587C24.0162 22.4495 23.091 23.4243 21.9202 23.5035L21.7662 23.5087H6.25041C5.8691 23.5087 5.49405 23.4118 5.16046 23.2271C4.12062 22.6513 3.71558 21.3734 4.20914 20.312L4.28204 20.1687L12.0388 6.16046C12.2434 5.7911 12.5477 5.48674 12.917 5.28216Z" fill="#f1c40e"/><path d="M15.0066 19.5004C15.0066 18.9489 14.5595 18.5017 14.0079 18.5017C13.4564 18.5017 13.0093 18.9489 13.0093 19.5004C13.0093 20.052 13.4564 20.4991 14.0079 20.4991C14.5595 20.4991 15.0066 20.052 15.0066 19.5004Z" fill="white"/><path d="M14.7474 11.6471C14.6975 11.2811 14.3834 10.9992 14.0037 10.9995C13.5895 10.9998 13.254 11.3359 13.2543 11.7501L13.2579 16.2517L13.2649 16.3535C13.3148 16.7195 13.6288 17.0014 14.0085 17.0011C14.4228 17.0008 14.7583 16.6647 14.7579 16.2505L14.7543 11.7489L14.7474 11.6471Z" fill="white"/></svg></g><g transform="translate(-102.6,196.5)"><svg width="28" height="28" viewBox="0 0 28 28" xmlns="http://www.w3.org/2000/svg"><path d="M12.917 5.28216C13.9568 4.70625 15.2548 5.04089 15.8927 6.0224L15.9755 6.16023L23.7344 20.1685C23.9192 20.5021 24.0162 20.8773 24.0162 21.2587C24.0162 22.4495 23.091 23.4243 21.9202 23.5035L21.7662 23.5087H6.25041C5.8691 23.5087 5.49405 23.4118 5.16046 23.2271C4.12062 22.6513 3.71558 21.3734 4.20914 20.312L4.28204 20.1687L12.0388 6.16046C12.2434 5.7911 12.5477 5.48674 12.917 5.28216Z" fill="#f1c40e"/><path d="M15.0066 19.5004C15.0066 18.9489 14.5595 18.5017 14.0079 18.5017C13.4564 18.5017 13.0093 18.9489 13.0093 19.5004C13.0093 20.052 13.4564 20.4991 14.0079 20.4991C14.5595 20.4991 15.0066 20.052 15.0066 19.5004Z" fill="white"/><path d="M14.7474 11.6471C14.6975 11.2811 14.3834 10.9992 14.0037 10.9995C13.5895 10.9998 13.254 11.3359 13.2543 11.7501L13.2579 16.2517L13.2649 16.3535C13.3148 16.7195 13.6288 17.0014 14.0085 17.0011C14.4228 17.0008 14.7583 16.6647 14.7579 16.2505L14.7543 11.7489L14.7474 11.6471Z" fill="white"/></svg></g><g transform="translate(-39.8,183.9)"><svg width="28" height="28" viewBox="0 0 28 28" xmlns="http://www.w3.org/2000/svg"><path d="M12.917 5.28216C13.9568 4.70625 15.2548 5.04089 15.8927 6.0224L15.9755 6.16023L23.7344 20.1685C23.9192 20.5021 24.0162 20.8773 24.0162 21.2587C24.0162 22.4495 23.091 23.4243 21.9202 23.5035L21.7662 23.5087H6.25041C5.8691 23.5087 5.49405 23.4118 5.16046 23.2271C4.12062 22.6513 3.71558 21.3734 4.20914 20.312L4.28204 20.1687L12.0388 6.16046C12.2434 5.7911 12.5477 5.48674 12.917 5.28216Z" fill="#f1c40e"/><path d="M15.0066 19.5004C15.0066 18.9489 14.5595 18.5017 14.0079 18.5017C13.4564 18.5017 13.0093 18.9489 13.0093 19.5004C13.0093 20.052 13.4564 20.4991 14.0079 20.4991C14.5595 20.4991 15.0066 20.052 15.0066 19.5004Z" fill="white"/><path d="M14.7474 11.6471C14.6975 11.2811 14.3834 10.9992 14.0037 10.9995C13.5895 10.9998 13.254 11.3359 13.2543 11.7501L13.2579 16.2517L13.2649 16.3535C13.3148 16.7195 13.6288 17.0014 14.0085 17.0011C14.4228 17.0008 14.7583 16.6647 14.7579 16.2505L14.7543 11.7489L14.7474 11.6471Z" fill="white"/></svg></g><g transform="translate(-95.4,209)"><svg width="28" height="28" viewBox="0 0 28 28" xmlns="http://www.w3.org/2000/svg"><path d="M12.917 5.28216C13.9568 4.70625 15.2548 5.04089 15.8927 6.0224L15.9755 6.16023L23.7344 20.1685C23.9192 20.5021 24.0162 20.8773 24.0162 21.2587C24.0162 22.4495 23.091 23.4243 21.9202 23.5035L21.7662 23.5087H6.25041C5.8691 23.5087 5.49405 23.4118 5.16046 23.2271C4.12062 22.6513 3.71558 21.3734 4.20914 20.312L4.28204 20.1687L12.0388 6.16046C12.2434 5.7911 12.5477 5.48674 12.917 5.28216Z" fill="#f1c40e"/><path d="M15.0066 19.5004C15.0066 18.9489 14.5595 18.5017 14.0079 18.5017C13.4564 18.5017 13.0093 18.9489 13.0093 19.5004C13.0093 20.052 13.4564 20.4991 14.0079 20.4991C14.5595 20.4991 15.0066 20.052 15.0066 19.5004Z" fill="white"/><path d="M14.7474 11.6471C14.6975 11.2811 14.3834 10.9992 14.0037 10.9995C13.5895 10.9998 13.254 11.3359 13.2543 11.7501L13.2579 16.2517L13.2649 16.3535C13.3148 16.7195 13.6288 17.0014 14.0085 17.0011C14.4228 17.0008 14.7583 16.6647 14.7579 16.2505L14.7543 11.7489L14.7474 11.6471Z" fill="white"/></svg></g><g transform="translate(-82.4,230.1)"><svg width="28" height="28" viewBox="0 0 28 28" xmlns="http://www.w3.org/2000/svg"><path d="M12.917 5.28216C13.9568 4.70625 15.2548 5.04089 15.8927 6.0224L15.9755 6.16023L23.7344 20.1685C23.9192 20.5021 24.0162 20.8773 24.0162 21.2587C24.0162 22.4495 23.091 23.4243 21.9202 23.5035L21.7662 23.5087H6.25041C5.8691 23.5087 5.49405 23.4118 5.16046 23.2271C4.12062 22.6513 3.71558 21.3734 4.20914 20.312L4.28204 20.1687L12.0388 6.16046C12.2434 5.7911 12.5477 5.48674 12.917 5.28216Z" fill="#f1c40e"/><path d="M15.0066 19.5004C15.0066 18.9489 14.5595 18.5017 14.0079 18.5017C13.4564 18.5017 13.0093 18.9489 13.0093 19.5004C13.0093 20.052 13.4564 20.4991 14.0079 20.4991C14.5595 20.4991 15.0066 20.052 15.0066 19.5004Z" fill="white"/><path d="M14.7474 11.6471C14.6975 11.2811 14.3834 10.9992 14.0037 10.9995C13.5895 10.9998 13.254 11.3359 13.2543 11.7501L13.2579 16.2517L13.2649 16.3535C13.3148 16.7195 13.6288 17.0014 14.0085 17.0011C14.4228 17.0008 14.7583 16.6647 14.7579 16.2505L14.7543 11.7489L14.7474 11.6471Z" fill="white"/></svg></g><g transform="translate(-50.2,222.4)"><svg width="28" height="28" viewBox="0 0 28 28" xmlns="http://www.w3.org/2000/svg"><path d="M12.917 5.28216C13.9568 4.70625 15.2548 5.04089 15.8927 6.0224L15.9755 6.16023L23.7344 20.1685C23.9192 20.5021 24.0162 20.8773 24.0162 21.2587C24.0162 22.4495 23.091 23.4243 21.9202 23.5035L21.7662 23.5087H6.25041C5.8691 23.5087 5.49405 23.4118 5.16046 23.2271C4.12062 22.6513 3.71558 21.3734 4.20914 20.312L4.28204 20.1687L12.0388 6.16046C12.2434 5.7911 12.5477 5.48674 12.917 5.28216Z" fill="#f1c40e"/><path d="M15.0066 19.5004C15.0066 18.9489 14.5595 18.5017 14.0079 18.5017C13.4564 18.5017 13.0093 18.9489 13.0093 19.5004C13.0093 20.052 13.4564 20.4991 14.0079 20.4991C14.5595 20.4991 15.0066 20.052 15.0066 19.5004Z" fill="white"/><path d="M14.7474 11.6471C14.6975 11.2811 14.3834 10.9992 14.0037 10.9995C13.5895 10.9998 13.254 11.3359 13.2543 11.7501L13.2579 16.2517L13.2649 16.3535C13.3148 16.7195 13.6288 17.0014 14.0085 17.0011C14.4228 17.0008 14.7583 16.6647 14.7579 16.2505L14.7543 11.7489L14.7474 11.6471Z" fill="white"/></svg></g><g transform="translate(-91.9,207.7)"><svg width="28" height="28" viewBox="0 0 28 28" xmlns="http://www.w3.org/2000/svg"><path d="M12.917 5.28216C13.9568 4.70625 15.2548 5.04089 15.8927 6.0224L15.9755 6.16023L23.7344 20.1685C23.9192 20.5021 24.0162 20.8773 24.0162 21.2587C24.0162 22.4495 23.091 23.4243 21.9202 23.5035L21.7662 23.5087H6.25041C5.8691 23.5087 5.49405 23.4118 5.16046 23.2271C4.12062 22.6513 3.71558 21.3734 4.20914 20.312L4.28204 20.1687L12.0388 6.16046C12.2434 5.7911 12.5477 5.48674 12.917 5.28216Z" fill="#f1c40e"/><path d="M15.0066 19.5004C15.0066 18.9489 14.5595 18.5017 14.0079 18.5017C13.4564 18.5017 13.0093 18.9489 13.0093 19.5004C13.0093 20.052 13.4564 20.4991 14.0079 20.4991C14.5595 20.4991 15.0066 20.052 15.0066 19.5004Z" fill="white"/><path d="M14.7474 11.6471C14.6975 11.2811 14.3834 10.9992 14.0037 10.9995C13.5895 10.9998 13.254 11.3359 13.2543 11.7501L13.2579 16.2517L13.2649 16.3535C13.3148 16.7195 13.6288 17.0014 14.0085 17.0011C14.4228 17.0008 14.7583 16.6647 14.7579 16.2505L14.7543 11.7489L14.7474 11.6471Z" fill="white"/></svg></g><g transform="translate(-94.6,209.9)"><svg width="28" height="28" viewBox="0 0 28 28" xmlns="http://www.w3.org/2000/svg"><path d="M12.917 5.28216C13.9568 4.70625 15.2548 5.04089 15.8927 6.0224L15.9755 6.16023L23.7344 20.1685C23.9192 20.5021 24.0162 20.8773 24.0162 21.2587C24.0162 22.4495 23.091 23.4243 21.9202 23.5035L21.7662 23.5087H6.25041C5.8691 23.5087 5.49405 23.4118 5.16046 23.2271C4.12062 22.6513 3.71558 21.3734 4.20914 20.312L4.28204 20.1687L12.0388 6.16046C12.2434 5.7911 12.5477 5.48674 12.917 5.28216Z" fill="#f1c40e"/><path d="M15.0066 19.5004C15.0066 18.9489 14.5595 18.5017 14.0079 18.5017C13.4564 18.5017 13.0093 18.9489 13.0093 19.5004C13.0093 20.052 13.4564 20.4991 14.0079 20.4991C14.5595 20.4991 15.0066 20.052 15.0066 19.5004Z" fill="white"/><path d="M14.7474 11.6471C14.6975 11.2811 14.3834 10.9992 14.0037 10.9995C13.5895 10.9998 13.254 11.3359 13.2543 11.7501L13.2579 16.2517L13.2649 16.3535C13.3148 16.7195 13.6288 17.0014 14.0085 17.0011C14.4228 17.0008 14.7583 16.6647 14.7579 16.2505L14.7543 11.7489L14.7474 11.6471Z" fill="white"/></svg></g><g transform="translate(-77.7,99.3)"><svg width="28" height="28" viewBox="0 0 28 28" xmlns="http://www.w3.org/2000/svg"><path d="M12.917 5.28216C13.9568 4.70625 15.2548 5.04089 15.8927 6.0224L15.9755 6.16023L23.7344 20.1685C23.9192 20.5021 24.0162 20.8773 24.0162 21.2587C24.0162 22.4495 23.091 23.4243 21.9202 23.5035L21.7662 23.5087H6.25041C5.8691 23.5087 5.49405 23.4118 5.16046 23.2271C4.12062 22.6513 3.71558 21.3734 4.20914 20.312L4.28204 20.1687L12.0388 6.16046C12.2434 5.7911 12.5477 5.48674 12.917 5.28216Z" fill="#f1c40e"/><path d="M15.0066 19.5004C15.0066 18.9489 14.5595 18.5017 14.0079 18.5017C13.4564 18.5017 13.0093 18.9489 13.0093 19.5004C13.0093 20.052 13.4564 20.4991 14.0079 20.4991C14.5595 20.4991 15.0066 20.052 15.0066 19.5004Z" fill="white"/><path d="M14.7474 11.6471C14.6975 11.2811 14.3834 10.9992 14.0037 10.9995C13.5895 10.9998 13.254 11.3359 13.2543 11.7501L13.2579 16.2517L13.2649 16.3535C13.3148 16.7195 13.6288 17.0014 14.0085 17.0011C14.4228 17.0008 14.7583 16.6647 14.7579 16.2505L14.7543 11.7489L14.7474 11.6471Z" fill="white"/></svg></g><g transform="translate(-101.2,206.6)"><svg width="28" height="28" viewBox="0 0 28 28" xmlns="http://www.w3.org/2000/svg"><path d="M12.917 5.28216C13.9568 4.70625 15.2548 5.04089 15.8927 6.0224L15.9755 6.16023L23.7344 20.1685C23.9192 20.5021 24.0162 20.8773 24.0162 21.2587C24.0162 22.4495 23.091 23.4243 21.9202 23.5035L21.7662 23.5087H6.25041C5.8691 23.5087 5.49405 23.4118 5.16046 23.2271C4.12062 22.6513 3.71558 21.3734 4.20914 20.312L4.28204 20.1687L12.0388 6.16046C12.2434 5.7911 12.5477 5.48674 12.917 5.28216Z" fill="#f1c40e"/><path d="M15.0066 19.5004C15.0066 18.9489 14.5595 18.5017 14.0079 18.5017C13.4564 18.5017 13.0093 18.9489 13.0093 19.5004C13.0093 20.052 13.4564 20.4991 14.0079 20.4991C14.5595 20.4991 15.0066 20.052 15.0066 19.5004Z" fill="white"/><path d="M14.7474 11.6471C14.6975 11.2811 14.3834 10.9992 14.0037 10.9995C13.5895 10.9998 13.254 11.3359 13.2543 11.7501L13.2579 16.2517L13.2649 16.3535C13.3148 16.7195 13.6288 17.0014 14.0085 17.0011C14.4228 17.0008 14.7583 16.6647 14.7579 16.2505L14.7543 11.7489L14.7474 11.6471Z" fill="white"/></svg></g><g transform="translate(-97,205.4)"><svg width="28" height="28" viewBox="0 0 28 28" xmlns="http://www.w3.org/2000/svg"><path d="M12.917 5.28216C13.9568 4.70625 15.2548 5.04089 15.8927 6.0224L15.9755 6.16023L23.7344 20.1685C23.9192 20.5021 24.0162 20.8773 24.0162 21.2587C24.0162 22.4495 23.091 23.4243 21.9202 23.5035L21.7662 23.5087H6.25041C5.8691 23.5087 5.49405 23.4118 5.16046 23.2271C4.12062 22.6513 3.71558 21.3734 4.20914 20.312L4.28204 20.1687L12.0388 6.16046C12.2434 5.7911 12.5477 5.48674 12.917 5.28216Z" fill="#f1c40e"/><path d="M15.0066 19.5004C15.0066 18.9489 14.5595 18.5017 14.0079 18.5017C13.4564 18.5017 13.0093 18.9489 13.0093 19.5004C13.0093 20.052 13.4564 20.4991 14.0079 20.4991C14.5595 20.4991 15.0066 20.052 15.0066 19.5004Z" fill="white"/><path d="M14.7474 11.6471C14.6975 11.2811 14.3834 10.9992 14.0037 10.9995C13.5895 10.9998 13.254 11.3359 13.2543 11.7501L13.2579 16.2517L13.2649 16.3535C13.3148 16.7195 13.6288 17.0014 14.0085 17.0011C14.4228 17.0008 14.7583 16.6647 14.7579 16.2505L14.7543 11.7489L14.7474 11.6471Z" fill="white"/></svg></g><g transform="translate(-101.1,203.1)"><svg width="28" height="28" viewBox="0 0 28 28" xmlns="http://www.w3.org/2000/svg"><path d="M12.917 5.28216C13.9568 4.70625 15.2548 5.04089 15.8927 6.0224L15.9755 6.16023L23.7344 20.1685C23.9192 20.5021 24.0162 20.8773 24.0162 21.2587C24.0162 22.4495 23.091 23.4243 21.9202 23.5035L21.7662 23.5087H6.25041C5.8691 23.5087 5.49405 23.4118 5.16046 23.2271C4.12062 22.6513 3.71558 21.3734 4.20914 20.312L4.28204 20.1687L12.0388 6.16046C12.2434 5.7911 12.5477 5.48674 12.917 5.28216Z" fill="#f1c40e"/><path d="M15.0066 19.5004C15.0066 18.9489 14.5595 18.5017 14.0079 18.5017C13.4564 18.5017 13.0093 18.9489 13.0093 19.5004C13.0093 20.052 13.4564 20.4991 14.0079 20.4991C14.5595 20.4991 15.0066 20.052 15.0066 19.5004Z" fill="white"/><path d="M14.7474 11.6471C14.6975 11.2811 14.3834 10.9992 14.0037 10.9995C13.5895 10.9998 13.254 11.3359 13.2543 11.7501L13.2579 16.2517L13.2649 16.3535C13.3148 16.7195 13.6288 17.0014 14.0085 17.0011C14.4228 17.0008 14.7583 16.6647 14.7579 16.2505L14.7543 11.7489L14.7474 11.6471Z" fill="white"/></svg></g><g transform="translate(-103.8,88.1)"><svg width="28" height="28" viewBox="0 0 28 28" xmlns="http://www.w3.org/2000/svg"><g clip-path="url(#clip0)"><path d="M9.91703 5.28216C10.9568 4.70625 12.2548 5.04089 12.8927 6.0224L12.9755 6.16023L20.7344 20.1685C20.9192 20.5021 21.0162 20.8773 21.0162 21.2587C21.0162 22.4495 20.091 23.4243 18.9202 23.5035L18.7662 23.5087H3.25041C2.8691 23.5087 2.49405 23.4118 2.16046 23.2271C1.12062 22.6513 0.715583 21.3734 1.20914 20.312L1.28204 20.1687L9.03883 6.16046C9.24336 5.7911 9.54769 5.48674 9.91703 5.28216Z" fill="#f1c40e"/><path d="M12.0066 19.5004C12.0066 18.9489 11.5595 18.5017 11.0079 18.5017C10.4564 18.5017 10.0093 18.9489 10.0093 19.5004C10.0093 20.052 10.4564 20.4991 11.0079 20.4991C11.5595 20.4991 12.0066 20.052 12.0066 19.5004Z" fill="white"/><path d="M11.7474 11.6471C11.6975 11.2811 11.3834 10.9992 11.0037 10.9995C10.5895 10.9998 10.254 11.3359 10.2543 11.7501L10.2579 16.2517L10.2649 16.3535C10.3148 16.7195 10.6288 17.0014 11.0085 17.0011C11.4228 17.0008 11.7583 16.6647 11.7579 16.2505L11.7543 11.7489L11.7474 11.6471Z" fill="white"/><g opacity="0.5" filter="url(#filter0_d)"><path fill-rule="evenodd" clip-rule="evenodd" d="M18 5.30196C18.2642 5.46699 18.4962 5.69967 18.6696 6L26.2473 19.125C26.4809 19.5297 26.555 19.9652 26.5018 20.3754C27.5544 19.9311 28.0807 18.62 27.4521 17.5313L20.7946 6C20.1981 4.967 18.9086 4.73432 18 5.30196Z" fill="#f1c40e"/></g><g opacity="0.7" filter="url(#filter1_d)"><path fill-rule="evenodd" clip-rule="evenodd" d="M22.872 22.125H23.1793C24.7189 22.125 25.6811 20.4583 24.9113 19.125L17.3336 6C16.6065 4.74059 14.8492 4.67077 14.0078 5.79051C14.0572 5.85624 14.1034 5.92607 14.1461 6L22.644 20.7187C22.9075 21.1752 22.9681 21.6707 22.872 22.125Z" fill="#f1c40e"/></g></g><defs><filter id="filter0_d" x="14" y="2" width="17.7231" height="23.3754" filterUnits="userSpaceOnUse" color-interpolation-filters="sRGB"><feFlood flood-opacity="0" result="BackgroundImageFix"/><feColorMatrix in="SourceAlpha" type="matrix" values="0 0 0 0 0 0 0 0 0 0 0 0 0 0 0 0 0 0 127 0" result="hardAlpha"/><feOffset dy="1"/><feGaussianBlur stdDeviation="2"/><feColorMatrix type="matrix" values="0 0 0 0 0 0 0 0 0 0 0 0 0 0 0 0 0 0 0.15 0"/><feBlend mode="normal" in2="BackgroundImageFix" result="effect1_dropShadow"/><feBlend mode="normal" in="SourceGraphic" in2="effect1_dropShadow" result="shape"/></filter><filter id="filter1_d" x="10.0078" y="2" width="19.1745" height="25.125" filterUnits="userSpaceOnUse" color-interpolation-filters="sRGB"><feFlood flood-opacity="0" result="BackgroundImageFix"/><feColorMatrix in="SourceAlpha" type="matrix" values="0 0 0 0 0 0 0 0 0 0 0 0 0 0 0 0 0 0 127 0" result="hardAlpha"/><feOffset dy="1"/><feGaussianBlur stdDeviation="2"/><feColorMatrix type="matrix" values="0 0 0 0 0 0 0 0 0 0 0 0 0 0 0 0 0 0 0.15 0"/><feBlend mode="normal" in2="BackgroundImageFix" result="effect1_dropShadow"/><feBlend mode="normal" in="SourceGraphic" in2="effect1_dropShadow" result="shape"/></filter><clipPath id="clip0"><rect width="28" height="28" fill="white"/></clipPath></defs></svg></g><g transform="translate(-69.6,322.5)"><svg width="28" height="28" viewBox="0 0 28 28" xmlns="http://www.w3.org/2000/svg"><path d="M12.917 5.28216C13.9568 4.70625 15.2548 5.04089 15.8927 6.0224L15.9755 6.16023L23.7344 20.1685C23.9192 20.5021 24.0162 20.8773 24.0162 21.2587C24.0162 22.4495 23.091 23.4243 21.9202 23.5035L21.7662 23.5087H6.25041C5.8691 23.5087 5.49405 23.4118 5.16046 23.2271C4.12062 22.6513 3.71558 21.3734 4.20914 20.312L4.28204 20.1687L12.0388 6.16046C12.2434 5.7911 12.5477 5.48674 12.917 5.28216Z" fill="#e67f22"/><path d="M15.0066 19.5004C15.0066 18.9489 14.5595 18.5017 14.0079 18.5017C13.4564 18.5017 13.0093 18.9489 13.0093 19.5004C13.0093 20.052 13.4564 20.4991 14.0079 20.4991C14.5595 20.4991 15.0066 20.052 15.0066 19.5004Z" fill="white"/><path d="M14.7474 11.6471C14.6975 11.2811 14.3834 10.9992 14.0037 10.9995C13.5895 10.9998 13.254 11.3359 13.2543 11.7501L13.2579 16.2517L13.2649 16.3535C13.3148 16.7195 13.6288 17.0014 14.0085 17.0011C14.4228 17.0008 14.7583 16.6647 14.7579 16.2505L14.7543 11.7489L14.7474 11.6471Z" fill="white"/></svg></g><g transform="translate(-93.9,332.3)"><svg width="28" height="28" viewBox="0 0 28 28" xmlns="http://www.w3.org/2000/svg"><path d="M12.917 5.28216C13.9568 4.70625 15.2548 5.04089 15.8927 6.0224L15.9755 6.16023L23.7344 20.1685C23.9192 20.5021 24.0162 20.8773 24.0162 21.2587C24.0162 22.4495 23.091 23.4243 21.9202 23.5035L21.7662 23.5087H6.25041C5.8691 23.5087 5.49405 23.4118 5.16046 23.2271C4.12062 22.6513 3.71558 21.3734 4.20914 20.312L4.28204 20.1687L12.0388 6.16046C12.2434 5.7911 12.5477 5.48674 12.917 5.28216Z" fill="#e67f22"/><path d="M15.0066 19.5004C15.0066 18.9489 14.5595 18.5017 14.0079 18.5017C13.4564 18.5017 13.0093 18.9489 13.0093 19.5004C13.0093 20.052 13.4564 20.4991 14.0079 20.4991C14.5595 20.4991 15.0066 20.052 15.0066 19.5004Z" fill="white"/><path d="M14.7474 11.6471C14.6975 11.2811 14.3834 10.9992 14.0037 10.9995C13.5895 10.9998 13.254 11.3359 13.2543 11.7501L13.2579 16.2517L13.2649 16.3535C13.3148 16.7195 13.6288 17.0014 14.0085 17.0011C14.4228 17.0008 14.7583 16.6647 14.7579 16.2505L14.7543 11.7489L14.7474 11.6471Z" fill="white"/></svg></g><g transform="translate(-84.9,296)"><svg width="28" height="28" viewBox="0 0 28 28" xmlns="http://www.w3.org/2000/svg"><path d="M12.917 5.28216C13.9568 4.70625 15.2548 5.04089 15.8927 6.0224L15.9755 6.16023L23.7344 20.1685C23.9192 20.5021 24.0162 20.8773 24.0162 21.2587C24.0162 22.4495 23.091 23.4243 21.9202 23.5035L21.7662 23.5087H6.25041C5.8691 23.5087 5.49405 23.4118 5.16046 23.2271C4.12062 22.6513 3.71558 21.3734 4.20914 20.312L4.28204 20.1687L12.0388 6.16046C12.2434 5.7911 12.5477 5.48674 12.917 5.28216Z" fill="#e67f22"/><path d="M15.0066 19.5004C15.0066 18.9489 14.5595 18.5017 14.0079 18.5017C13.4564 18.5017 13.0093 18.9489 13.0093 19.5004C13.0093 20.052 13.4564 20.4991 14.0079 20.4991C14.5595 20.4991 15.0066 20.052 15.0066 19.5004Z" fill="white"/><path d="M14.7474 11.6471C14.6975 11.2811 14.3834 10.9992 14.0037 10.9995C13.5895 10.9998 13.254 11.3359 13.2543 11.7501L13.2579 16.2517L13.2649 16.3535C13.3148 16.7195 13.6288 17.0014 14.0085 17.0011C14.4228 17.0008 14.7583 16.6647 14.7579 16.2505L14.7543 11.7489L14.7474 11.6471Z" fill="white"/></svg></g></g></svg>