<svg version="1.1" xmlns="http://www.w3.org/2000/svg" xmlns:xlink="http://www.w3.org/1999/xlink"  pointer-events="none" width="256" height="256"><g><g transform="translate(-67,234)"><svg width="28" height="28" viewBox="0 0 28 28" xmlns="http://www.w3.org/2000/svg"><path d="M12.917 5.28216C13.9568 4.70625 15.2548 5.04089 15.8927 6.0224L15.9755 6.16023L23.7344 20.1685C23.9192 20.5021 24.0162 20.8773 24.0162 21.2587C24.0162 22.4495 23.091 23.4243 21.9202 23.5035L21.7662 23.5087H6.25041C5.8691 23.5087 5.49405 23.4118 5.16046 23.2271C4.12062 22.6513 3.71558 21.3734 4.20914 20.312L4.28204 20.1687L12.0388 6.16046C12.2434 5.7911 12.5477 5.48674 12.917 5.28216Z" fill="#3967e4"/><path d="M15.0066 19.5004C15.0066 18.9489 14.5595 18.5017 14.0079 18.5017C13.4564 18.5017 13.0093 18.9489 13.0093 19.5004C13.0093 20.052 13.4564 20.4991 14.0079 20.4991C14.5595 20.4991 15.0066 20.052 15.0066 19.5004Z" fill="white"/><path d="M14.7474 11.6471C14.6975 11.2811 14.3834 10.9992 14.0037 10.9995C13.5895 10.9998 13.254 11.3359 13.2543 11.7501L13.2579 16.2517L13.2649 16.3535C13.3148 16.7195 13.6288 17.0014 14.0085 17.0011C14.4228 17.0008 14.7583 16.6647 14.7579 16.2505L14.7543 11.7489L14.7474 11.6471Z" fill="white"/></svg></g><g transform="translate(-104,237.4)"><svg width="28" height="28" viewBox="0 0 28 28" xmlns="http://www.w3.org/2000/svg"><path d="M12.917 5.28216C13.9568 4.70625 15.2548 5.04089 15.8927 6.0224L15.9755 6.16023L23.7344 20.1685C23.9192 20.5021 24.0162 20.8773 24.0162 21.2587C24.0162 22.4495 23.091 23.4243 21.9202 23.5035L21.7662 23.5087H6.25041C5.8691 23.5087 5.49405 23.4118 5.16046 23.2271C4.12062 22.6513 3.71558 21.3734 4.20914 20.312L4.28204 20.1687L12.0388 6.16046C12.2434 5.7911 12.5477 5.48674 12.917 5.28216Z" fill="#3967e4"/><path d="M15.0066 19.5004C15.0066 18.9489 14.5595 18.5017 14.0079 18.5017C13.4564 18.5017 13.0093 18.9489 13.0093 19.5004C13.0093 20.052 13.4564 20.4991 14.0079 20.4991C14.5595 20.4991 15.0066 20.052 15.0066 19.5004Z" fill="white"/><path d="M14.7474 11.6471C14.6975 11.2811 14.3834 10.9992 14.0037 10.9995C13.5895 10.9998 13.254 11.3359 13.2543 11.7501L13.2579 16.2517L13.2649 16.3535C13.3148 16.7195 13.6288 17.0014 14.0085 17.0011C14.4228 17.0008 14.7583 16.6647 14.7579 16.2505L14.7543 11.7489L14.7474 11.6471Z" fill="white"/></svg></g><g transform="translate(305.1,-23.2)"><svg width="28" height="28" viewBox="0 0 28 28" xmlns="http://www.w3.org/2000/svg"><path d="M12.917 5.28216C13.9568 4.70625 15.2548 5.04089 15.8927 6.0224L15.9755 6.16023L23.7344 20.1685C23.9192 20.5021 24.0162 20.8773 24.0162 21.2587C24.0162 22.4495 23.091 23.4243 21.9202 23.5035L21.7662 23.5087H6.25041C5.8691 23.5087 5.49405 23.4118 5.16046 23.2271C4.12062 22.6513 3.71558 21.3734 4.20914 20.312L4.28204 20.1687L12.0388 6.16046C12.2434 5.7911 12.5477 5.48674 12.917 5.28216Z" fill="#3967e4"/><path d="M15.0066 19.5004C15.0066 18.9489 14.5595 18.5017 14.0079 18.5017C13.4564 18.5017 13.0093 18.9489 13.0093 19.5004C13.0093 20.052 13.4564 20.4991 14.0079 20.4991C14.5595 20.4991 15.0066 20.052 15.0066 19.5004Z" fill="white"/><path d="M14.7474 11.6471C14.6975 11.2811 14.3834 10.9992 14.0037 10.9995C13.5895 10.9998 13.254 11.3359 13.2543 11.7501L13.2579 16.2517L13.2649 16.3535C13.3148 16.7195 13.6288 17.0014 14.0085 17.0011C14.4228 17.0008 14.7583 16.6647 14.7579 16.2505L14.7543 11.7489L14.7474 11.6471Z" fill="white"/></svg></g><g transform="translate(320.4,-39.1)"><svg width="28" height="28" viewBox="0 0 28 28" xmlns="http://www.w3.org/2000/svg"><path d="M12.917 5.28216C13.9568 4.70625 15.2548 5.04089 15.8927 6.0224L15.9755 6.16023L23.7344 20.1685C23.9192 20.5021 24.0162 20.8773 24.0162 21.2587C24.0162 22.4495 23.091 23.4243 21.9202 23.5035L21.7662 23.5087H6.25041C5.8691 23.5087 5.49405 23.4118 5.16046 23.2271C4.12062 22.6513 3.71558 21.3734 4.20914 20.312L4.28204 20.1687L12.0388 6.16046C12.2434 5.7911 12.5477 5.48674 12.917 5.28216Z" fill="#3967e4"/><path d="M15.0066 19.5004C15.0066 18.9489 14.5595 18.5017 14.0079 18.5017C13.4564 18.5017 13.0093 18.9489 13.0093 19.5004C13.0093 20.052 13.4564 20.4991 14.0079 20.4991C14.5595 20.4991 15.0066 20.052 15.0066 19.5004Z" fill="white"/><path d="M14.7474 11.6471C14.6975 11.2811 14.3834 10.9992 14.0037 10.9995C13.5895 10.9998 13.254 11.3359 13.2543 11.7501L13.2579 16.2517L13.2649 16.3535C13.3148 16.7195 13.6288 17.0014 14.0085 17.0011C14.4228 17.0008 14.7583 16.6647 14.7579 16.2505L14.7543 11.7489L14.7474 11.6471Z" fill="white"/></svg></g><g transform="translate(273,-15.9)"><svg width="28" height="28" viewBox="0 0 28 28" xmlns="http://www.w3.org/2000/svg"><path d="M12.917 5.28216C13.9568 4.70625 15.2548 5.04089 15.8927 6.0224L15.9755 6.16023L23.7344 20.1685C23.9192 20.5021 24.0162 20.8773 24.0162 21.2587C24.0162 22.4495 23.091 23.4243 21.9202 23.5035L21.7662 23.5087H6.25041C5.8691 23.5087 5.49405 23.4118 5.16046 23.2271C4.12062 22.6513 3.71558 21.3734 4.20914 20.312L4.28204 20.1687L12.0388 6.16046C12.2434 5.7911 12.5477 5.48674 12.917 5.28216Z" fill="#3967e4"/><path d="M15.0066 19.5004C15.0066 18.9489 14.5595 18.5017 14.0079 18.5017C13.4564 18.5017 13.0093 18.9489 13.0093 19.5004C13.0093 20.052 13.4564 20.4991 14.0079 20.4991C14.5595 20.4991 15.0066 20.052 15.0066 19.5004Z" fill="white"/><path d="M14.7474 11.6471C14.6975 11.2811 14.3834 10.9992 14.0037 10.9995C13.5895 10.9998 13.254 11.3359 13.2543 11.7501L13.2579 16.2517L13.2649 16.3535C13.3148 16.7195 13.6288 17.0014 14.0085 17.0011C14.4228 17.0008 14.7583 16.6647 14.7579 16.2505L14.7543 11.7489L14.7474 11.6471Z" fill="white"/></svg></g><g transform="translate(-100.6,162.5)"><svg width="28" height="28" viewBox="0 0 28 28" xmlns="http://www.w3.org/2000/svg"><path d="M12.917 5.28216C13.9568 4.70625 15.2548 5.04089 15.8927 6.0224L15.9755 6.16023L23.7344 20.1685C23.9192 20.5021 24.0162 20.8773 24.0162 21.2587C24.0162 22.4495 23.091 23.4243 21.9202 23.5035L21.7662 23.5087H6.25041C5.8691 23.5087 5.49405 23.4118 5.16046 23.2271C4.12062 22.6513 3.71558 21.3734 4.20914 20.312L4.28204 20.1687L12.0388 6.16046C12.2434 5.7911 12.5477 5.48674 12.917 5.28216Z" fill="#3967e4"/><path d="M15.0066 19.5004C15.0066 18.9489 14.5595 18.5017 14.0079 18.5017C13.4564 18.5017 13.0093 18.9489 13.0093 19.5004C13.0093 20.052 13.4564 20.4991 14.0079 20.4991C14.5595 20.4991 15.0066 20.052 15.0066 19.5004Z" fill="white"/><path d="M14.7474 11.6471C14.6975 11.2811 14.3834 10.9992 14.0037 10.9995C13.5895 10.9998 13.254 11.3359 13.2543 11.7501L13.2579 16.2517L13.2649 16.3535C13.3148 16.7195 13.6288 17.0014 14.0085 17.0011C14.4228 17.0008 14.7583 16.6647 14.7579 16.2505L14.7543 11.7489L14.7474 11.6471Z" fill="white"/></svg></g><g transform="translate(-99.1,200.2)"><svg width="28" height="28" viewBox="0 0 28 28" xmlns="http://www.w3.org/2000/svg"><path d="M12.917 5.28216C13.9568 4.70625 15.2548 5.04089 15.8927 6.0224L15.9755 6.16023L23.7344 20.1685C23.9192 20.5021 24.0162 20.8773 24.0162 21.2587C24.0162 22.4495 23.091 23.4243 21.9202 23.5035L21.7662 23.5087H6.25041C5.8691 23.5087 5.49405 23.4118 5.16046 23.2271C4.12062 22.6513 3.71558 21.3734 4.20914 20.312L4.28204 20.1687L12.0388 6.16046C12.2434 5.7911 12.5477 5.48674 12.917 5.28216Z" fill="#3967e4"/><path d="M15.0066 19.5004C15.0066 18.9489 14.5595 18.5017 14.0079 18.5017C13.4564 18.5017 13.0093 18.9489 13.0093 19.5004C13.0093 20.052 13.4564 20.4991 14.0079 20.4991C14.5595 20.4991 15.0066 20.052 15.0066 19.5004Z" fill="white"/><path d="M14.7474 11.6471C14.6975 11.2811 14.3834 10.9992 14.0037 10.9995C13.5895 10.9998 13.254 11.3359 13.2543 11.7501L13.2579 16.2517L13.2649 16.3535C13.3148 16.7195 13.6288 17.0014 14.0085 17.0011C14.4228 17.0008 14.7583 16.6647 14.7579 16.2505L14.7543 11.7489L14.7474 11.6471Z" fill="white"/></svg></g><g transform="translate(307.9,-23.7)"><svg width="28" height="28" viewBox="0 0 28 28" xmlns="http://www.w3.org/2000/svg"><path d="M12.917 5.28216C13.9568 4.70625 15.2548 5.04089 15.8927 6.0224L15.9755 6.16023L23.7344 20.1685C23.9192 20.5021 24.0162 20.8773 24.0162 21.2587C24.0162 22.4495 23.091 23.4243 21.9202 23.5035L21.7662 23.5087H6.25041C5.8691 23.5087 5.49405 23.4118 5.16046 23.2271C4.12062 22.6513 3.71558 21.3734 4.20914 20.312L4.28204 20.1687L12.0388 6.16046C12.2434 5.7911 12.5477 5.48674 12.917 5.28216Z" fill="#3967e4"/><path d="M15.0066 19.5004C15.0066 18.9489 14.5595 18.5017 14.0079 18.5017C13.4564 18.5017 13.0093 18.9489 13.0093 19.5004C13.0093 20.052 13.4564 20.4991 14.0079 20.4991C14.5595 20.4991 15.0066 20.052 15.0066 19.5004Z" fill="white"/><path d="M14.7474 11.6471C14.6975 11.2811 14.3834 10.9992 14.0037 10.9995C13.5895 10.9998 13.254 11.3359 13.2543 11.7501L13.2579 16.2517L13.2649 16.3535C13.3148 16.7195 13.6288 17.0014 14.0085 17.0011C14.4228 17.0008 14.7583 16.6647 14.7579 16.2505L14.7543 11.7489L14.7474 11.6471Z" fill="white"/></svg></g><g transform="translate(304.9,-23.3)"><svg width="28" height="28" viewBox="0 0 28 28" xmlns="http://www.w3.org/2000/svg"><path d="M12.917 5.28216C13.9568 4.70625 15.2548 5.04089 15.8927 6.0224L15.9755 6.16023L23.7344 20.1685C23.9192 20.5021 24.0162 20.8773 24.0162 21.2587C24.0162 22.4495 23.091 23.4243 21.9202 23.5035L21.7662 23.5087H6.25041C5.8691 23.5087 5.49405 23.4118 5.16046 23.2271C4.12062 22.6513 3.71558 21.3734 4.20914 20.312L4.28204 20.1687L12.0388 6.16046C12.2434 5.7911 12.5477 5.48674 12.917 5.28216Z" fill="#3967e4"/><path d="M15.0066 19.5004C15.0066 18.9489 14.5595 18.5017 14.0079 18.5017C13.4564 18.5017 13.0093 18.9489 13.0093 19.5004C13.0093 20.052 13.4564 20.4991 14.0079 20.4991C14.5595 20.4991 15.0066 20.052 15.0066 19.5004Z" fill="white"/><path d="M14.7474 11.6471C14.6975 11.2811 14.3834 10.9992 14.0037 10.9995C13.5895 10.9998 13.254 11.3359 13.2543 11.7501L13.2579 16.2517L13.2649 16.3535C13.3148 16.7195 13.6288 17.0014 14.0085 17.0011C14.4228 17.0008 14.7583 16.6647 14.7579 16.2505L14.7543 11.7489L14.7474 11.6471Z" fill="white"/></svg></g><g transform="translate(303.3,-22.1)"><svg width="28" height="28" viewBox="0 0 28 28" xmlns="http://www.w3.org/2000/svg"><path d="M12.917 5.28216C13.9568 4.70625 15.2548 5.04089 15.8927 6.0224L15.9755 6.16023L23.7344 20.1685C23.9192 20.5021 24.0162 20.8773 24.0162 21.2587C24.0162 22.4495 23.091 23.4243 21.9202 23.5035L21.7662 23.5087H6.25041C5.8691 23.5087 5.49405 23.4118 5.16046 23.2271C4.12062 22.6513 3.71558 21.3734 4.20914 20.312L4.28204 20.1687L12.0388 6.16046C12.2434 5.7911 12.5477 5.48674 12.917 5.28216Z" fill="#3967e4"/><path d="M15.0066 19.5004C15.0066 18.9489 14.5595 18.5017 14.0079 18.5017C13.4564 18.5017 13.0093 18.9489 13.0093 19.5004C13.0093 20.052 13.4564 20.4991 14.0079 20.4991C14.5595 20.4991 15.0066 20.052 15.0066 19.5004Z" fill="white"/><path d="M14.7474 11.6471C14.6975 11.2811 14.3834 10.9992 14.0037 10.9995C13.5895 10.9998 13.254 11.3359 13.2543 11.7501L13.2579 16.2517L13.2649 16.3535C13.3148 16.7195 13.6288 17.0014 14.0085 17.0011C14.4228 17.0008 14.7583 16.6647 14.7579 16.2505L14.7543 11.7489L14.7474 11.6471Z" fill="white"/></svg></g><g transform="translate(297,-27.7)"><svg width="28" height="28" viewBox="0 0 28 28" xmlns="http://www.w3.org/2000/svg"><path d="M12.917 5.28216C13.9568 4.70625 15.2548 5.04089 15.8927 6.0224L15.9755 6.16023L23.7344 20.1685C23.9192 20.5021 24.0162 20.8773 24.0162 21.2587C24.0162 22.4495 23.091 23.4243 21.9202 23.5035L21.7662 23.5087H6.25041C5.8691 23.5087 5.49405 23.4118 5.16046 23.2271C4.12062 22.6513 3.71558 21.3734 4.20914 20.312L4.28204 20.1687L12.0388 6.16046C12.2434 5.7911 12.5477 5.48674 12.917 5.28216Z" fill="#3967e4"/><path d="M15.0066 19.5004C15.0066 18.9489 14.5595 18.5017 14.0079 18.5017C13.4564 18.5017 13.0093 18.9489 13.0093 19.5004C13.0093 20.052 13.4564 20.4991 14.0079 20.4991C14.5595 20.4991 15.0066 20.052 15.0066 19.5004Z" fill="white"/><path d="M14.7474 11.6471C14.6975 11.2811 14.3834 10.9992 14.0037 10.9995C13.5895 10.9998 13.254 11.3359 13.2543 11.7501L13.2579 16.2517L13.2649 16.3535C13.3148 16.7195 13.6288 17.0014 14.0085 17.0011C14.4228 17.0008 14.7583 16.6647 14.7579 16.2505L14.7543 11.7489L14.7474 11.6471Z" fill="white"/></svg></g><g transform="translate(-96.8,-43.2)"><svg width="28" height="28" viewBox="0 0 28 28" xmlns="http://www.w3.org/2000/svg"><path d="M12.917 5.28216C13.9568 4.70625 15.2548 5.04089 15.8927 6.0224L15.9755 6.16023L23.7344 20.1685C23.9192 20.5021 24.0162 20.8773 24.0162 21.2587C24.0162 22.4495 23.091 23.4243 21.9202 23.5035L21.7662 23.5087H6.25041C5.8691 23.5087 5.49405 23.4118 5.16046 23.2271C4.12062 22.6513 3.71558 21.3734 4.20914 20.312L4.28204 20.1687L12.0388 6.16046C12.2434 5.7911 12.5477 5.48674 12.917 5.28216Z" fill="#f1c40e"/><path d="M15.0066 19.5004C15.0066 18.9489 14.5595 18.5017 14.0079 18.5017C13.4564 18.5017 13.0093 18.9489 13.0093 19.5004C13.0093 20.052 13.4564 20.4991 14.0079 20.4991C14.5595 20.4991 15.0066 20.052 15.0066 19.5004Z" fill="white"/><path d="M14.7474 11.6471C14.6975 11.2811 14.3834 10.9992 14.0037 10.9995C13.5895 10.9998 13.254 11.3359 13.2543 11.7501L13.2579 16.2517L13.2649 16.3535C13.3148 16.7195 13.6288 17.0014 14.0085 17.0011C14.4228 17.0008 14.7583 16.6647 14.7579 16.2505L14.7543 11.7489L14.7474 11.6471Z" fill="white"/></svg></g><g transform="translate(59.2,-83.3)"><svg width="28" height="28" viewBox="0 0 28 28" xmlns="http://www.w3.org/2000/svg"><path d="M12.917 5.28216C13.9568 4.70625 15.2548 5.04089 15.8927 6.0224L15.9755 6.16023L23.7344 20.1685C23.9192 20.5021 24.0162 20.8773 24.0162 21.2587C24.0162 22.4495 23.091 23.4243 21.9202 23.5035L21.7662 23.5087H6.25041C5.8691 23.5087 5.49405 23.4118 5.16046 23.2271C4.12062 22.6513 3.71558 21.3734 4.20914 20.312L4.28204 20.1687L12.0388 6.16046C12.2434 5.7911 12.5477 5.48674 12.917 5.28216Z" fill="#f1c40e"/><path d="M15.0066 19.5004C15.0066 18.9489 14.5595 18.5017 14.0079 18.5017C13.4564 18.5017 13.0093 18.9489 13.0093 19.5004C13.0093 20.052 13.4564 20.4991 14.0079 20.4991C14.5595 20.4991 15.0066 20.052 15.0066 19.5004Z" fill="white"/><path d="M14.7474 11.6471C14.6975 11.2811 14.3834 10.9992 14.0037 10.9995C13.5895 10.9998 13.254 11.3359 13.2543 11.7501L13.2579 16.2517L13.2649 16.3535C13.3148 16.7195 13.6288 17.0014 14.0085 17.0011C14.4228 17.0008 14.7583 16.6647 14.7579 16.2505L14.7543 11.7489L14.7474 11.6471Z" fill="white"/></svg></g><g transform="translate(-86.7,-117.7)"><svg width="28" height="28" viewBox="0 0 28 28" xmlns="http://www.w3.org/2000/svg"><path d="M12.917 5.28216C13.9568 4.70625 15.2548 5.04089 15.8927 6.0224L15.9755 6.16023L23.7344 20.1685C23.9192 20.5021 24.0162 20.8773 24.0162 21.2587C24.0162 22.4495 23.091 23.4243 21.9202 23.5035L21.7662 23.5087H6.25041C5.8691 23.5087 5.49405 23.4118 5.16046 23.2271C4.12062 22.6513 3.71558 21.3734 4.20914 20.312L4.28204 20.1687L12.0388 6.16046C12.2434 5.7911 12.5477 5.48674 12.917 5.28216Z" fill="#f1c40e"/><path d="M15.0066 19.5004C15.0066 18.9489 14.5595 18.5017 14.0079 18.5017C13.4564 18.5017 13.0093 18.9489 13.0093 19.5004C13.0093 20.052 13.4564 20.4991 14.0079 20.4991C14.5595 20.4991 15.0066 20.052 15.0066 19.5004Z" fill="white"/><path d="M14.7474 11.6471C14.6975 11.2811 14.3834 10.9992 14.0037 10.9995C13.5895 10.9998 13.254 11.3359 13.2543 11.7501L13.2579 16.2517L13.2649 16.3535C13.3148 16.7195 13.6288 17.0014 14.0085 17.0011C14.4228 17.0008 14.7583 16.6647 14.7579 16.2505L14.7543 11.7489L14.7474 11.6471Z" fill="white"/></svg></g><g transform="translate(-86.3,-43.4)"><svg width="28" height="28" viewBox="0 0 28 28" xmlns="http://www.w3.org/2000/svg"><path d="M12.917 5.28216C13.9568 4.70625 15.2548 5.04089 15.8927 6.0224L15.9755 6.16023L23.7344 20.1685C23.9192 20.5021 24.0162 20.8773 24.0162 21.2587C24.0162 22.4495 23.091 23.4243 21.9202 23.5035L21.7662 23.5087H6.25041C5.8691 23.5087 5.49405 23.4118 5.16046 23.2271C4.12062 22.6513 3.71558 21.3734 4.20914 20.312L4.28204 20.1687L12.0388 6.16046C12.2434 5.7911 12.5477 5.48674 12.917 5.28216Z" fill="#f1c40e"/><path d="M15.0066 19.5004C15.0066 18.9489 14.5595 18.5017 14.0079 18.5017C13.4564 18.5017 13.0093 18.9489 13.0093 19.5004C13.0093 20.052 13.4564 20.4991 14.0079 20.4991C14.5595 20.4991 15.0066 20.052 15.0066 19.5004Z" fill="white"/><path d="M14.7474 11.6471C14.6975 11.2811 14.3834 10.9992 14.0037 10.9995C13.5895 10.9998 13.254 11.3359 13.2543 11.7501L13.2579 16.2517L13.2649 16.3535C13.3148 16.7195 13.6288 17.0014 14.0085 17.0011C14.4228 17.0008 14.7583 16.6647 14.7579 16.2505L14.7543 11.7489L14.7474 11.6471Z" fill="white"/></svg></g><g transform="translate(-102.6,-59.5)"><svg width="28" height="28" viewBox="0 0 28 28" xmlns="http://www.w3.org/2000/svg"><path d="M12.917 5.28216C13.9568 4.70625 15.2548 5.04089 15.8927 6.0224L15.9755 6.16023L23.7344 20.1685C23.9192 20.5021 24.0162 20.8773 24.0162 21.2587C24.0162 22.4495 23.091 23.4243 21.9202 23.5035L21.7662 23.5087H6.25041C5.8691 23.5087 5.49405 23.4118 5.16046 23.2271C4.12062 22.6513 3.71558 21.3734 4.20914 20.312L4.28204 20.1687L12.0388 6.16046C12.2434 5.7911 12.5477 5.48674 12.917 5.28216Z" fill="#f1c40e"/><path d="M15.0066 19.5004C15.0066 18.9489 14.5595 18.5017 14.0079 18.5017C13.4564 18.5017 13.0093 18.9489 13.0093 19.5004C13.0093 20.052 13.4564 20.4991 14.0079 20.4991C14.5595 20.4991 15.0066 20.052 15.0066 19.5004Z" fill="white"/><path d="M14.7474 11.6471C14.6975 11.2811 14.3834 10.9992 14.0037 10.9995C13.5895 10.9998 13.254 11.3359 13.2543 11.7501L13.2579 16.2517L13.2649 16.3535C13.3148 16.7195 13.6288 17.0014 14.0085 17.0011C14.4228 17.0008 14.7583 16.6647 14.7579 16.2505L14.7543 11.7489L14.7474 11.6471Z" fill="white"/></svg></g><g transform="translate(-39.8,-72.1)"><svg width="28" height="28" viewBox="0 0 28 28" xmlns="http://www.w3.org/2000/svg"><path d="M12.917 5.28216C13.9568 4.70625 15.2548 5.04089 15.8927 6.0224L15.9755 6.16023L23.7344 20.1685C23.9192 20.5021 24.0162 20.8773 24.0162 21.2587C24.0162 22.4495 23.091 23.4243 21.9202 23.5035L21.7662 23.5087H6.25041C5.8691 23.5087 5.49405 23.4118 5.16046 23.2271C4.12062 22.6513 3.71558 21.3734 4.20914 20.312L4.28204 20.1687L12.0388 6.16046C12.2434 5.7911 12.5477 5.48674 12.917 5.28216Z" fill="#f1c40e"/><path d="M15.0066 19.5004C15.0066 18.9489 14.5595 18.5017 14.0079 18.5017C13.4564 18.5017 13.0093 18.9489 13.0093 19.5004C13.0093 20.052 13.4564 20.4991 14.0079 20.4991C14.5595 20.4991 15.0066 20.052 15.0066 19.5004Z" fill="white"/><path d="M14.7474 11.6471C14.6975 11.2811 14.3834 10.9992 14.0037 10.9995C13.5895 10.9998 13.254 11.3359 13.2543 11.7501L13.2579 16.2517L13.2649 16.3535C13.3148 16.7195 13.6288 17.0014 14.0085 17.0011C14.4228 17.0008 14.7583 16.6647 14.7579 16.2505L14.7543 11.7489L14.7474 11.6471Z" fill="white"/></svg></g><g transform="translate(-95.4,-47)"><svg width="28" height="28" viewBox="0 0 28 28" xmlns="http://www.w3.org/2000/svg"><path d="M12.917 5.28216C13.9568 4.70625 15.2548 5.04089 15.8927 6.0224L15.9755 6.16023L23.7344 20.1685C23.9192 20.5021 24.0162 20.8773 24.0162 21.2587C24.0162 22.4495 23.091 23.4243 21.9202 23.5035L21.7662 23.5087H6.25041C5.8691 23.5087 5.49405 23.4118 5.16046 23.2271C4.12062 22.6513 3.71558 21.3734 4.20914 20.312L4.28204 20.1687L12.0388 6.16046C12.2434 5.7911 12.5477 5.48674 12.917 5.28216Z" fill="#f1c40e"/><path d="M15.0066 19.5004C15.0066 18.9489 14.5595 18.5017 14.0079 18.5017C13.4564 18.5017 13.0093 18.9489 13.0093 19.5004C13.0093 20.052 13.4564 20.4991 14.0079 20.4991C14.5595 20.4991 15.0066 20.052 15.0066 19.5004Z" fill="white"/><path d="M14.7474 11.6471C14.6975 11.2811 14.3834 10.9992 14.0037 10.9995C13.5895 10.9998 13.254 11.3359 13.2543 11.7501L13.2579 16.2517L13.2649 16.3535C13.3148 16.7195 13.6288 17.0014 14.0085 17.0011C14.4228 17.0008 14.7583 16.6647 14.7579 16.2505L14.7543 11.7489L14.7474 11.6471Z" fill="white"/></svg></g><g transform="translate(-82.4,-25.9)"><svg width="28" height="28" viewBox="0 0 28 28" xmlns="http://www.w3.org/2000/svg"><path d="M12.917 5.28216C13.9568 4.70625 15.2548 5.04089 15.8927 6.0224L15.9755 6.16023L23.7344 20.1685C23.9192 20.5021 24.0162 20.8773 24.0162 21.2587C24.0162 22.4495 23.091 23.4243 21.9202 23.5035L21.7662 23.5087H6.25041C5.8691 23.5087 5.49405 23.4118 5.16046 23.2271C4.12062 22.6513 3.71558 21.3734 4.20914 20.312L4.28204 20.1687L12.0388 6.16046C12.2434 5.7911 12.5477 5.48674 12.917 5.28216Z" fill="#f1c40e"/><path d="M15.0066 19.5004C15.0066 18.9489 14.5595 18.5017 14.0079 18.5017C13.4564 18.5017 13.0093 18.9489 13.0093 19.5004C13.0093 20.052 13.4564 20.4991 14.0079 20.4991C14.5595 20.4991 15.0066 20.052 15.0066 19.5004Z" fill="white"/><path d="M14.7474 11.6471C14.6975 11.2811 14.3834 10.9992 14.0037 10.9995C13.5895 10.9998 13.254 11.3359 13.2543 11.7501L13.2579 16.2517L13.2649 16.3535C13.3148 16.7195 13.6288 17.0014 14.0085 17.0011C14.4228 17.0008 14.7583 16.6647 14.7579 16.2505L14.7543 11.7489L14.7474 11.6471Z" fill="white"/></svg></g><g transform="translate(-50.2,-33.6)"><svg width="28" height="28" viewBox="0 0 28 28" xmlns="http://www.w3.org/2000/svg"><path d="M12.917 5.28216C13.9568 4.70625 15.2548 5.04089 15.8927 6.0224L15.9755 6.16023L23.7344 20.1685C23.9192 20.5021 24.0162 20.8773 24.0162 21.2587C24.0162 22.4495 23.091 23.4243 21.9202 23.5035L21.7662 23.5087H6.25041C5.8691 23.5087 5.49405 23.4118 5.16046 23.2271C4.12062 22.6513 3.71558 21.3734 4.20914 20.312L4.28204 20.1687L12.0388 6.16046C12.2434 5.7911 12.5477 5.48674 12.917 5.28216Z" fill="#f1c40e"/><path d="M15.0066 19.5004C15.0066 18.9489 14.5595 18.5017 14.0079 18.5017C13.4564 18.5017 13.0093 18.9489 13.0093 19.5004C13.0093 20.052 13.4564 20.4991 14.0079 20.4991C14.5595 20.4991 15.0066 20.052 15.0066 19.5004Z" fill="white"/><path d="M14.7474 11.6471C14.6975 11.2811 14.3834 10.9992 14.0037 10.9995C13.5895 10.9998 13.254 11.3359 13.2543 11.7501L13.2579 16.2517L13.2649 16.3535C13.3148 16.7195 13.6288 17.0014 14.0085 17.0011C14.4228 17.0008 14.7583 16.6647 14.7579 16.2505L14.7543 11.7489L14.7474 11.6471Z" fill="white"/></svg></g><g transform="translate(-91.9,-48.3)"><svg width="28" height="28" viewBox="0 0 28 28" xmlns="http://www.w3.org/2000/svg"><path d="M12.917 5.28216C13.9568 4.70625 15.2548 5.04089 15.8927 6.0224L15.9755 6.16023L23.7344 20.1685C23.9192 20.5021 24.0162 20.8773 24.0162 21.2587C24.0162 22.4495 23.091 23.4243 21.9202 23.5035L21.7662 23.5087H6.25041C5.8691 23.5087 5.49405 23.4118 5.16046 23.2271C4.12062 22.6513 3.71558 21.3734 4.20914 20.312L4.28204 20.1687L12.0388 6.16046C12.2434 5.7911 12.5477 5.48674 12.917 5.28216Z" fill="#f1c40e"/><path d="M15.0066 19.5004C15.0066 18.9489 14.5595 18.5017 14.0079 18.5017C13.4564 18.5017 13.0093 18.9489 13.0093 19.5004C13.0093 20.052 13.4564 20.4991 14.0079 20.4991C14.5595 20.4991 15.0066 20.052 15.0066 19.5004Z" fill="white"/><path d="M14.7474 11.6471C14.6975 11.2811 14.3834 10.9992 14.0037 10.9995C13.5895 10.9998 13.254 11.3359 13.2543 11.7501L13.2579 16.2517L13.2649 16.3535C13.3148 16.7195 13.6288 17.0014 14.0085 17.0011C14.4228 17.0008 14.7583 16.6647 14.7579 16.2505L14.7543 11.7489L14.7474 11.6471Z" fill="white"/></svg></g><g transform="translate(-94.6,-46.1)"><svg width="28" height="28" viewBox="0 0 28 28" xmlns="http://www.w3.org/2000/svg"><path d="M12.917 5.28216C13.9568 4.70625 15.2548 5.04089 15.8927 6.0224L15.9755 6.16023L23.7344 20.1685C23.9192 20.5021 24.0162 20.8773 24.0162 21.2587C24.0162 22.4495 23.091 23.4243 21.9202 23.5035L21.7662 23.5087H6.25041C5.8691 23.5087 5.49405 23.4118 5.16046 23.2271C4.12062 22.6513 3.71558 21.3734 4.20914 20.312L4.28204 20.1687L12.0388 6.16046C12.2434 5.7911 12.5477 5.48674 12.917 5.28216Z" fill="#f1c40e"/><path d="M15.0066 19.5004C15.0066 18.9489 14.5595 18.5017 14.0079 18.5017C13.4564 18.5017 13.0093 18.9489 13.0093 19.5004C13.0093 20.052 13.4564 20.4991 14.0079 20.4991C14.5595 20.4991 15.0066 20.052 15.0066 19.5004Z" fill="white"/><path d="M14.7474 11.6471C14.6975 11.2811 14.3834 10.9992 14.0037 10.9995C13.5895 10.9998 13.254 11.3359 13.2543 11.7501L13.2579 16.2517L13.2649 16.3535C13.3148 16.7195 13.6288 17.0014 14.0085 17.0011C14.4228 17.0008 14.7583 16.6647 14.7579 16.2505L14.7543 11.7489L14.7474 11.6471Z" fill="white"/></svg></g><g transform="translate(-101.2,-49.4)"><svg width="28" height="28" viewBox="0 0 28 28" xmlns="http://www.w3.org/2000/svg"><path d="M12.917 5.28216C13.9568 4.70625 15.2548 5.04089 15.8927 6.0224L15.9755 6.16023L23.7344 20.1685C23.9192 20.5021 24.0162 20.8773 24.0162 21.2587C24.0162 22.4495 23.091 23.4243 21.9202 23.5035L21.7662 23.5087H6.25041C5.8691 23.5087 5.49405 23.4118 5.16046 23.2271C4.12062 22.6513 3.71558 21.3734 4.20914 20.312L4.28204 20.1687L12.0388 6.16046C12.2434 5.7911 12.5477 5.48674 12.917 5.28216Z" fill="#f1c40e"/><path d="M15.0066 19.5004C15.0066 18.9489 14.5595 18.5017 14.0079 18.5017C13.4564 18.5017 13.0093 18.9489 13.0093 19.5004C13.0093 20.052 13.4564 20.4991 14.0079 20.4991C14.5595 20.4991 15.0066 20.052 15.0066 19.5004Z" fill="white"/><path d="M14.7474 11.6471C14.6975 11.2811 14.3834 10.9992 14.0037 10.9995C13.5895 10.9998 13.254 11.3359 13.2543 11.7501L13.2579 16.2517L13.2649 16.3535C13.3148 16.7195 13.6288 17.0014 14.0085 17.0011C14.4228 17.0008 14.7583 16.6647 14.7579 16.2505L14.7543 11.7489L14.7474 11.6471Z" fill="white"/></svg></g><g transform="translate(-97,-50.6)"><svg width="28" height="28" viewBox="0 0 28 28" xmlns="http://www.w3.org/2000/svg"><path d="M12.917 5.28216C13.9568 4.70625 15.2548 5.04089 15.8927 6.0224L15.9755 6.16023L23.7344 20.1685C23.9192 20.5021 24.0162 20.8773 24.0162 21.2587C24.0162 22.4495 23.091 23.4243 21.9202 23.5035L21.7662 23.5087H6.25041C5.8691 23.5087 5.49405 23.4118 5.16046 23.2271C4.12062 22.6513 3.71558 21.3734 4.20914 20.312L4.28204 20.1687L12.0388 6.16046C12.2434 5.7911 12.5477 5.48674 12.917 5.28216Z" fill="#f1c40e"/><path d="M15.0066 19.5004C15.0066 18.9489 14.5595 18.5017 14.0079 18.5017C13.4564 18.5017 13.0093 18.9489 13.0093 19.5004C13.0093 20.052 13.4564 20.4991 14.0079 20.4991C14.5595 20.4991 15.0066 20.052 15.0066 19.5004Z" fill="white"/><path d="M14.7474 11.6471C14.6975 11.2811 14.3834 10.9992 14.0037 10.9995C13.5895 10.9998 13.254 11.3359 13.2543 11.7501L13.2579 16.2517L13.2649 16.3535C13.3148 16.7195 13.6288 17.0014 14.0085 17.0011C14.4228 17.0008 14.7583 16.6647 14.7579 16.2505L14.7543 11.7489L14.7474 11.6471Z" fill="white"/></svg></g><g transform="translate(-101.1,-52.9)"><svg width="28" height="28" viewBox="0 0 28 28" xmlns="http://www.w3.org/2000/svg"><path d="M12.917 5.28216C13.9568 4.70625 15.2548 5.04089 15.8927 6.0224L15.9755 6.16023L23.7344 20.1685C23.9192 20.5021 24.0162 20.8773 24.0162 21.2587C24.0162 22.4495 23.091 23.4243 21.9202 23.5035L21.7662 23.5087H6.25041C5.8691 23.5087 5.49405 23.4118 5.16046 23.2271C4.12062 22.6513 3.71558 21.3734 4.20914 20.312L4.28204 20.1687L12.0388 6.16046C12.2434 5.7911 12.5477 5.48674 12.917 5.28216Z" fill="#f1c40e"/><path d="M15.0066 19.5004C15.0066 18.9489 14.5595 18.5017 14.0079 18.5017C13.4564 18.5017 13.0093 18.9489 13.0093 19.5004C13.0093 20.052 13.4564 20.4991 14.0079 20.4991C14.5595 20.4991 15.0066 20.052 15.0066 19.5004Z" fill="white"/><path d="M14.7474 11.6471C14.6975 11.2811 14.3834 10.9992 14.0037 10.9995C13.5895 10.9998 13.254 11.3359 13.2543 11.7501L13.2579 16.2517L13.2649 16.3535C13.3148 16.7195 13.6288 17.0014 14.0085 17.0011C14.4228 17.0008 14.7583 16.6647 14.7579 16.2505L14.7543 11.7489L14.7474 11.6471Z" fill="white"/></svg></g><g transform="translate(-69.6,66.5)"><svg width="28" height="28" viewBox="0 0 28 28" xmlns="http://www.w3.org/2000/svg"><path d="M12.917 5.28216C13.9568 4.70625 15.2548 5.04089 15.8927 6.0224L15.9755 6.16023L23.7344 20.1685C23.9192 20.5021 24.0162 20.8773 24.0162 21.2587C24.0162 22.4495 23.091 23.4243 21.9202 23.5035L21.7662 23.5087H6.25041C5.8691 23.5087 5.49405 23.4118 5.16046 23.2271C4.12062 22.6513 3.71558 21.3734 4.20914 20.312L4.28204 20.1687L12.0388 6.16046C12.2434 5.7911 12.5477 5.48674 12.917 5.28216Z" fill="#e67f22"/><path d="M15.0066 19.5004C15.0066 18.9489 14.5595 18.5017 14.0079 18.5017C13.4564 18.5017 13.0093 18.9489 13.0093 19.5004C13.0093 20.052 13.4564 20.4991 14.0079 20.4991C14.5595 20.4991 15.0066 20.052 15.0066 19.5004Z" fill="white"/><path d="M14.7474 11.6471C14.6975 11.2811 14.3834 10.9992 14.0037 10.9995C13.5895 10.9998 13.254 11.3359 13.2543 11.7501L13.2579 16.2517L13.2649 16.3535C13.3148 16.7195 13.6288 17.0014 14.0085 17.0011C14.4228 17.0008 14.7583 16.6647 14.7579 16.2505L14.7543 11.7489L14.7474 11.6471Z" fill="white"/></svg></g><g transform="translate(-93.9,76.3)"><svg width="28" height="28" viewBox="0 0 28 28" xmlns="http://www.w3.org/2000/svg"><path d="M12.917 5.28216C13.9568 4.70625 15.2548 5.04089 15.8927 6.0224L15.9755 6.16023L23.7344 20.1685C23.9192 20.5021 24.0162 20.8773 24.0162 21.2587C24.0162 22.4495 23.091 23.4243 21.9202 23.5035L21.7662 23.5087H6.25041C5.8691 23.5087 5.49405 23.4118 5.16046 23.2271C4.12062 22.6513 3.71558 21.3734 4.20914 20.312L4.28204 20.1687L12.0388 6.16046C12.2434 5.7911 12.5477 5.48674 12.917 5.28216Z" fill="#e67f22"/><path d="M15.0066 19.5004C15.0066 18.9489 14.5595 18.5017 14.0079 18.5017C13.4564 18.5017 13.0093 18.9489 13.0093 19.5004C13.0093 20.052 13.4564 20.4991 14.0079 20.4991C14.5595 20.4991 15.0066 20.052 15.0066 19.5004Z" fill="white"/><path d="M14.7474 11.6471C14.6975 11.2811 14.3834 10.9992 14.0037 10.9995C13.5895 10.9998 13.254 11.3359 13.2543 11.7501L13.2579 16.2517L13.2649 16.3535C13.3148 16.7195 13.6288 17.0014 14.0085 17.0011C14.4228 17.0008 14.7583 16.6647 14.7579 16.2505L14.7543 11.7489L14.7474 11.6471Z" fill="white"/></svg></g><g transform="translate(-84.9,40)"><svg width="28" height="28" viewBox="0 0 28 28" xmlns="http://www.w3.org/2000/svg"><path d="M12.917 5.28216C13.9568 4.70625 15.2548 5.04089 15.8927 6.0224L15.9755 6.16023L23.7344 20.1685C23.9192 20.5021 24.0162 20.8773 24.0162 21.2587C24.0162 22.4495 23.091 23.4243 21.9202 23.5035L21.7662 23.5087H6.25041C5.8691 23.5087 5.49405 23.4118 5.16046 23.2271C4.12062 22.6513 3.71558 21.3734 4.20914 20.312L4.28204 20.1687L12.0388 6.16046C12.2434 5.7911 12.5477 5.48674 12.917 5.28216Z" fill="#e67f22"/><path d="M15.0066 19.5004C15.0066 18.9489 14.5595 18.5017 14.0079 18.5017C13.4564 18.5017 13.0093 18.9489 13.0093 19.5004C13.0093 20.052 13.4564 20.4991 14.0079 20.4991C14.5595 20.4991 15.0066 20.052 15.0066 19.5004Z" fill="white"/><path d="M14.7474 11.6471C14.6975 11.2811 14.3834 10.9992 14.0037 10.9995C13.5895 10.9998 13.254 11.3359 13.2543 11.7501L13.2579 16.2517L13.2649 16.3535C13.3148 16.7195 13.6288 17.0014 14.0085 17.0011C14.4228 17.0008 14.7583 16.6647 14.7579 16.2505L14.7543 11.7489L14.7474 11.6471Z" fill="white"/></svg></g></g></svg>