<svg width="72" height="72" viewBox="0 0 72 72" fill="none" xmlns="http://www.w3.org/2000/svg">
<path d="M11.712 12H60.281C64.0937 12 66 14.0015 66 18.0046C66 21.9979 64.0937 23.997 60.281 24.0019H11.712C7.89938 24.0019 5.99537 22.0028 6.00001 18.0046C6.00001 14.0015 7.90401 12 11.712 12ZM11.712 29.9992H60.281C64.0937 29.9992 66 32.0008 66 36.0038C66 40.002 64.0937 42.0011 60.281 42.0011H11.712C7.89938 42.0011 5.99537 40.002 6.00001 36.0038C6.00001 32.0008 7.90401 29.9992 11.712 29.9992ZM11.712 47.9981H60.281C64.0937 47.9981 66 49.9996 66 54.0027C66 58.0009 64.0937 60 60.281 60H11.712C7.89938 60 5.99537 58.0009 6.00001 54.0027C6.00001 49.9996 7.90401 47.9981 11.712 47.9981Z" fill="url(#paint0_linear_780_43021)"/>
<defs>
<linearGradient id="paint0_linear_780_43021" x1="27.1111" y1="30.6667" x2="66.3821" y2="60.2046" gradientUnits="userSpaceOnUse">
<stop stop-color="#EBE100"/>
<stop offset="1" stop-color="#C7B300"/>
</linearGradient>
</defs>
</svg>
